<?xml version="1.0" encoding="utf-8"?>
<!-- Generator: Adobe Illustrator 26.3.1, SVG Export Plug-In . SVG Version: 6.00 Build 0)  -->
<svg version="1.1" id="Layer_1" xmlns="http://www.w3.org/2000/svg" xmlns:xlink="http://www.w3.org/1999/xlink" x="0px" y="0px"
	 viewBox="0 0 500 500" style="enable-background:new 0 0 500 500;" xml:space="preserve">
<style type="text/css">
	.st0{fill-rule:evenodd;clip-rule:evenodd;fill:#FFFFFF;}
</style>
<g id="Download">
	<path class="st0" d="M240.5,270.8v144.5c0,5.2,4.3,9.5,9.5,9.5s9.5-4.3,9.5-9.5V270.8l28.6,28.6c3.7,3.7,9.7,3.7,13.4,0
		c3.7-3.7,3.7-9.7,0-13.4l-44.8-44.8l0,0l0,0l0,0l0,0l0,0l0,0l0,0l0,0l0,0l0,0l0,0l0,0l0,0l0,0l0,0l0,0l0,0l0,0l0,0l0,0l0,0l0,0l0,0
		l0,0l0,0l0,0l0,0l0,0l0,0l0,0l0,0l-0.1,0l0,0l-0.1,0l0,0l-0.1,0l-0.1,0l-0.1,0l-0.1,0l-0.1,0l-0.1,0l-0.1,0l-0.1,0l-0.1,0l-0.1,0
		l-0.1,0l-0.1,0l-0.1,0l-0.1,0l-0.1,0l-0.1,0l-0.1,0l-0.1,0l-0.1,0l-0.1,0l-0.1,0l-0.1,0l-0.1,0l-0.1,0l-0.1,0l-0.1,0l-0.1,0l-0.1,0
		l0,0c-1.1-0.5-2.3-0.7-3.6-0.7s-2.5,0.3-3.6,0.7l-0.1,0l-0.1,0l-0.1,0l-0.1,0l-0.1,0l-0.1,0l-0.1,0l-0.1,0l-0.1,0l-0.1,0l-0.1,0
		l-0.1,0l-0.1,0l-0.1,0l-0.1,0l-0.1,0l-0.1,0l-0.1,0l-0.1,0l-0.1,0l-0.1,0l-0.1,0l0,0l-0.1,0l-0.1,0l0,0l-0.1,0l-0.1,0l-0.1,0
		l-0.1,0l0,0l0,0l-0.1,0l0,0l0,0l0,0l0,0l0,0l0,0l0,0l0,0l0,0l0,0l0,0l0,0l0,0l0,0l0,0l0,0l0,0l0,0l0,0l0,0l0,0l0,0l0,0l0,0l0,0l0,0
		l0,0l0,0l0,0l0,0l-44.8,44.8c-3.7,3.7-3.7,9.7,0,13.4c3.7,3.7,9.7,3.7,13.4,0L240.5,270.8z M105.8,184.9
		c-35.7,4.6-63.3,35.1-63.3,72.1c0,0,0,0,0,0c0,40.1,32.5,72.7,72.7,72.7h90c5.2,0,9.5-4.3,9.5-9.5c0-5.2-4.3-9.5-9.5-9.5h-90
		c-29.6,0-53.7-24-53.7-53.7v0c0-29.5,23.8-53.5,53.3-53.7c-0.1,0,9.3-7.2,9.4-9.5l0,0c0-27.3,22.2-49.5,49.5-49.5
		c8.2,0,16,2,22.8,5.6c2.3,1.2,5,1.4,7.5,0.6c2.5-0.8,4.5-2.7,5.6-5c13.8-29.9,44-50.8,79.1-50.8c48,0,87.1,39,87.1,87.1
		c0,3.7-0.2,7.3-0.7,10.9c-0.3,2.7,0.5,5.4,2.3,7.5c1.8,2,4.4,3.2,7.1,3.2h0.3c29.6,0,53.7,24,53.7,53.7v0c0,29.6-24,53.7-53.7,53.7
		h-90c-5.2,0-9.5,4.3-9.5,9.5c0,5.2,4.3,9.5,9.5,9.5h90c40.1,0,72.7-32.5,72.7-72.7c0,0,0,0,0,0c0-36.8-27.3-67.2-62.7-72
		c0-1.1,0-2.1,0-3.2c0-58.5-47.5-106.1-106.1-106.1c-39.4,0-73.9,21.6-92.1,53.5c-7.1-2.5-14.8-3.9-22.8-3.9
		C138.9,125.3,110.2,151.3,105.8,184.9z M114.8,203.3L114.8,203.3z M346.7,158.2c-0.2-0.6,0-1.5,0.5-2l9.3-9.5
		c0.5-0.5,0.6-1.3,0.3-1.9l-6.7-11c-0.4-0.5-1.2-0.8-1.8-0.7l-13,3.6c-0.6,0.2-1.5-0.1-2-0.5l-2.8-2.6c-0.5-0.4-0.8-1.3-0.7-1.9
		l2.7-13.1c0.1-0.6-0.2-1.4-0.8-1.8l-11.7-5.8c-0.6-0.3-1.4-0.1-1.9,0.4l-9,10c-0.4,0.5-1.3,0.8-2,0.6l-3.6-0.7
		c-0.6-0.1-1.4-0.7-1.6-1.3l-4.9-12.5c-0.2-0.6-1-1.1-1.6-1.1l-13,1.3c-0.6,0.1-1.3,0.7-1.4,1.4l-2.1,13.2c-0.1,0.6-0.4,1.3-0.8,1.4
		l-0.3,0.1c-1.7,0.6-3.9,1.6-3.9,1.6c-0.6,0.3-1.5,0.2-2-0.2l-10.9-8c-0.5-0.4-1.4-0.4-1.9,0l-10.1,7.8c-0.5,0.4-0.7,1.3-0.4,1.9
		l5.3,12.1c0.3,0.6,0.1,1.5-0.3,2l-2.8,3.8c-0.4,0.5-1.2,0.9-1.9,0.9l-13.5-0.8c-0.7,0-1.4,0.4-1.6,1l-4.2,11.7
		c-0.2,0.6,0.1,1.4,0.6,1.8l11,7.3c0.5,0.4,0.9,1.2,0.9,1.8l-0.4,5.6c0,0.7-0.5,1.4-1.1,1.8l-11.7,6.6c-0.6,0.3-0.9,1.1-0.8,1.7
		c0,0,1.4,8.1,3,12.7l0,0c0,0,0.6,0.1,1.2,0.1l13.2,0.2c0.7,0,1.4,0.5,1.7,1.1l3.2,5.6c0.3,0.6,0.4,1.5,0.1,2.1l-6.3,11.8
		c-0.3,0.6-0.2,1.4,0.3,1.9l8.4,8c0.5,0.4,1.4,0.5,1.9,0.1l11.2-7c0.6-0.3,1.5-0.4,2,0l6.1,3.1c0.6,0.3,1.1,1,1.2,1.7l1.1,13.2
		c0.1,0.7,0.6,1.3,1.3,1.5l11.4,2.1c0.6,0.1,1.4-0.3,1.7-0.9l5.7-12c0.3-0.6,1-1.1,1.7-1.2l6.8-0.8c0.6-0.1,1.5,0.2,1.9,0.8l8,10.5
		c0.4,0.5,1.2,0.8,1.9,0.6c0,0,0.3-0.1,1.1-0.4c3.8-1.3,9.7-4.3,9.7-4.3c0.6-0.3,1-1.1,0.9-1.7l-1.7-13.3c-0.1-0.6,0.3-1.5,0.8-1.9
		l4.8-4c0.5-0.4,1.4-0.6,2-0.4l12.4,4.5c0.6,0.2,1.4,0,1.8-0.5l6.7-10c0.3-0.6,0.3-1.4-0.2-1.9l-8.7-10.3c-0.4-0.5-0.6-1.4-0.4-2
		l1.6-5.1c0.2-0.6,0.8-1.3,1.5-1.4l12.9-3c0.6-0.1,1.2-0.8,1.2-1.4l0.2-12.5c0-0.7-0.6-1.3-1.2-1.5l-12.9-4
		c-0.6-0.2-1.3-0.9-1.4-1.5L346.7,158.2L346.7,158.2z M308.4,212.5c-20.7,7.2-43.4-3.8-50.5-24.6c-7.2-20.7,3.8-43.4,24.6-50.5
		c20.7-7.2,43.4,3.8,50.5,24.6S329.1,205.3,308.4,212.5z M222.2,212.5c0.1-0.5,0.6-1,1.1-1.1l9.6-2.7c0.5-0.1,0.9-0.6,0.9-1.1
		l-0.2-9.7c0-0.5-0.5-1-0.9-1.1l-9.8-2.6c-0.5-0.1-1-0.6-1.1-1.1l-0.9-2.7c-0.2-0.5,0-1.1,0.3-1.5l6.6-7.5c0.3-0.4,0.4-1,0.1-1.4
		l-5.4-8.2c-0.3-0.4-0.9-0.6-1.4-0.4l-9.6,3.1c-0.5,0.2-1.1,0-1.5-0.3l-2.1-1.8c-0.4-0.3-0.6-1-0.6-1.4l1.6-10
		c0.1-0.5-0.2-1.1-0.7-1.3l-8.9-4c-0.5-0.2-1.1,0-1.4,0.4l-6.3,7.8c-0.3,0.4-0.8,0.6-1,0.6l-0.2,0c-1.3-0.3-3.1-0.5-3.1-0.5
		c-0.5-0.1-1-0.5-1.2-0.9l-4.1-9.3c-0.2-0.4-0.8-0.8-1.2-0.7l-9.5,1.3c-0.5,0.1-0.9,0.6-1,1.1l-1.1,9.9c-0.1,0.5-0.5,1-0.9,1.2
		l-3.2,1.4c-0.4,0.2-1.1,0.2-1.5-0.1l-8.5-5.6c-0.4-0.3-1.1-0.2-1.5,0l-7.1,6c-0.4,0.3-0.5,1-0.3,1.4l4.4,8.9
		c0.2,0.4,0.2,1.1-0.1,1.5l-2.3,3.5c-0.3,0.4-0.9,0.8-1.4,0.7l-10.1-0.1c-0.5,0-1,0.4-1.2,0.8c0,0-2.1,5.8-2.8,9.4l0,0
		c0,0,0.3,0.2,0.8,0.5l8.5,5.1c0.4,0.3,0.7,0.9,0.7,1.3l0,4.8c0,0.5-0.3,1.1-0.7,1.4l-8.5,5.3c-0.4,0.3-0.7,0.9-0.5,1.3l2.5,8.4
		c0.2,0.5,0.7,0.8,1.2,0.8l9.9-0.3c0.5,0,1.1,0.3,1.3,0.7l2.8,4.3c0.3,0.4,0.3,1.1,0.1,1.5l-4.2,9c-0.2,0.4-0.1,1.1,0.3,1.4l6.6,5.6
		c0.4,0.3,1,0.3,1.4,0l8.2-5.6c0.4-0.3,1.1-0.3,1.5-0.1l4.7,2c0.5,0.2,0.9,0.7,0.9,1.2l1.3,9.8c0.1,0.5,0.5,1,1,1.1
		c0,0,0.3,0.1,0.8,0.2c3,0.6,7.9,0.9,7.9,0.9c0.5,0,1-0.3,1.2-0.8l3.9-9.3c0.2-0.5,0.7-0.9,1.2-0.9l4.6-0.8c0.5-0.1,1.1,0.1,1.4,0.5
		l6.4,7.5c0.3,0.4,0.9,0.5,1.4,0.3l8.1-4c0.4-0.2,0.7-0.8,0.6-1.3l-1.7-10c-0.1-0.5,0.2-1.1,0.5-1.5l3-2.7c0.3-0.3,1-0.5,1.5-0.4
		l9.5,2.9c0.5,0.1,1.1-0.1,1.4-0.5l4.8-8c0.2-0.4,0.1-1.1-0.2-1.4l-6.9-7.5c-0.3-0.4-0.5-1-0.4-1.5L222.2,212.5L222.2,212.5z
		 M177.9,233.4c-16.2-3.1-26.7-18.7-23.6-34.9c3.1-16.2,18.7-26.7,34.9-23.6c16.2,3.1,26.7,18.7,23.6,34.9
		C209.7,225.9,194.1,236.5,177.9,233.4z M414.8,257.6c0-0.5,0.4-1.1,0.8-1.3l8.6-4.4c0.4-0.2,0.7-0.8,0.6-1.3l-2-9.3
		c-0.1-0.5-0.6-0.9-1.1-0.9l-9.8-0.6c-0.5,0-1-0.4-1.2-0.8l-1.3-2.5c-0.2-0.4-0.2-1.1,0-1.5l4.9-8.5c0.2-0.4,0.2-1-0.1-1.4l-6.6-6.9
		c-0.3-0.3-1-0.4-1.4-0.2l-8.5,4.8c-0.4,0.2-1.1,0.2-1.5,0l-2.3-1.3c-0.4-0.2-0.8-0.8-0.8-1.3l-0.3-9.9c0-0.5-0.4-1-0.9-1.1
		l-9.2-2.2c-0.5-0.1-1,0.2-1.3,0.6l-4.6,8.7c-0.2,0.4-0.6,0.8-0.8,0.8h-0.2c-1.3,0-3.1,0.1-3.1,0.1c-0.5,0-1.1-0.3-1.3-0.7l-5.6-8.2
		c-0.3-0.4-0.9-0.6-1.3-0.5l-8.8,3c-0.4,0.2-0.8,0.7-0.7,1.2l0.7,9.7c0,0.5-0.3,1.1-0.7,1.3l-2.8,2c-0.4,0.3-1,0.4-1.5,0.2l-9.1-3.8
		c-0.4-0.2-1.1,0-1.4,0.3l-5.6,7.1c-0.3,0.4-0.3,1,0,1.4l5.8,7.7c0.3,0.4,0.4,1.1,0.2,1.5l-1.6,3.8c-0.2,0.5-0.7,0.9-1.1,1l-9.6,1.8
		c-0.5,0.1-0.9,0.5-1,1c0,0-0.9,6-0.9,9.6v0c0,0,0.4,0.2,0.8,0.3l9,3.3c0.4,0.2,0.9,0.7,0.9,1.2l0.8,4.7c0.1,0.5-0.1,1.1-0.4,1.4
		l-7.1,6.7c-0.3,0.3-0.5,1-0.3,1.4l3.9,7.6c0.2,0.4,0.8,0.7,1.3,0.6l9.4-2.1c0.5-0.1,1.1,0.1,1.4,0.5l3.4,3.6c0.3,0.3,0.5,1,0.4,1.5
		l-2.4,9.5c-0.1,0.5,0.1,1.1,0.5,1.3l7.3,4.2c0.4,0.2,1,0.1,1.4-0.2l6.8-7c0.3-0.3,1-0.5,1.4-0.4l4.8,1.1c0.5,0.1,1,0.5,1.1,1l3,9.2
		c0.1,0.5,0.7,0.8,1.1,0.9c0,0,0.3,0,0.8,0c2.9,0,7.7-0.6,7.7-0.6c0.5-0.1,0.9-0.5,1-1l2-9.7c0.1-0.5,0.5-1,1-1.1l4.2-1.6
		c0.4-0.2,1.1-0.1,1.5,0.2l7.4,6.1c0.4,0.3,1,0.3,1.4,0.1l7-5.4c0.4-0.3,0.5-0.9,0.4-1.4l-3.5-9.3c-0.2-0.4-0.1-1.1,0.2-1.5l2.3-3.2
		c0.3-0.4,0.9-0.7,1.3-0.6l9.5,1c0.5,0.1,1-0.3,1.2-0.7l3.1-8.7c0.1-0.5-0.1-1.1-0.4-1.4l-7.9-5.9c-0.4-0.3-0.7-0.9-0.6-1.4
		L414.8,257.6L414.8,257.6z M375.7,286.2c-15.9,0-28.8-13.1-28.8-29.3c0-16.2,12.9-29.3,28.8-29.3s28.8,13.1,28.8,29.3
		S391.6,286.2,375.7,286.2z M149.5,257.5c0-0.4,0.3-0.9,0.7-1.1l7.5-4c0.4-0.2,0.6-0.7,0.5-1.1l-2-8c-0.1-0.4-0.6-0.7-1-0.8
		l-8.7-0.3c-0.4,0-0.9-0.3-1.1-0.7l-1.2-2.1c-0.2-0.4-0.2-0.9,0-1.3l4.2-7.5c0.2-0.4,0.1-0.9-0.1-1.2l-6-5.8
		c-0.3-0.3-0.9-0.3-1.2-0.1l-7.4,4.4c-0.4,0.2-1,0.2-1.3,0l-2.1-1.1c-0.4-0.2-0.7-0.7-0.7-1.1l-0.5-8.6c0-0.4-0.4-0.8-0.8-1
		l-8.2-1.7c-0.4-0.1-0.9,0.2-1.1,0.6l-3.8,7.6c-0.2,0.4-0.5,0.7-0.7,0.7l-0.2,0c-1.2,0-2.7,0.2-2.7,0.2c-0.4,0-1-0.2-1.2-0.5l-5.1-7
		c-0.2-0.3-0.8-0.5-1.2-0.4l-7.7,2.8c-0.4,0.2-0.7,0.6-0.6,1.1l0.9,8.4c0,0.4-0.2,1-0.5,1.2l-2.4,1.8c-0.3,0.3-0.9,0.3-1.3,0.2
		l-8.1-3.1c-0.4-0.1-0.9,0-1.2,0.3l-4.8,6.3c-0.2,0.3-0.2,0.9,0,1.2l5.3,6.6c0.3,0.3,0.3,0.9,0.2,1.3l-1.3,3.4
		c-0.1,0.4-0.6,0.8-1,0.9l-8.5,1.8c-0.4,0.1-0.8,0.5-0.8,0.9c0,0-0.7,5.2-0.6,8.4l0,0c0,0,0.3,0.1,0.7,0.3l8,2.7
		c0.4,0.1,0.8,0.6,0.8,1l0.8,4c0.1,0.4-0.1,1-0.4,1.3l-6.1,6c-0.3,0.3-0.4,0.8-0.2,1.2l3.6,6.6c0.2,0.4,0.7,0.6,1.1,0.5l8.2-2.1
		c0.4-0.1,1,0.1,1.3,0.4l3.1,3.1c0.3,0.3,0.5,0.8,0.4,1.3l-1.9,8.3c-0.1,0.4,0.1,0.9,0.5,1.1l6.6,3.5c0.4,0.2,0.9,0.1,1.2-0.2
		l5.8-6.2c0.3-0.3,0.9-0.5,1.3-0.4l4.3,0.8c0.4,0.1,0.9,0.4,1,0.8l2.9,8c0.1,0.4,0.6,0.7,1,0.7c0,0,0.2,0,0.7,0
		c2.6-0.1,6.8-0.7,6.8-0.7c0.4-0.1,0.8-0.5,0.9-0.9l1.5-8.5c0.1-0.4,0.5-0.9,0.9-1l3.7-1.5c0.4-0.2,1-0.1,1.3,0.1l6.7,5.1
		c0.3,0.3,0.9,0.3,1.2,0l6-4.8c0.3-0.3,0.4-0.8,0.3-1.2l-3.3-8c-0.2-0.4-0.1-1,0.2-1.3l2-2.8c0.2-0.4,0.8-0.6,1.2-0.6l8.4,0.7
		c0.4,0,0.9-0.3,1-0.6l2.6-7.6c0.1-0.4-0.1-0.9-0.4-1.2l-7.1-5c-0.3-0.2-0.6-0.8-0.6-1.2L149.5,257.5L149.5,257.5z M115.5,283.3
		c-14.1,0.4-25.8-10.7-26.1-24.8c-0.4-14.1,10.7-25.8,24.8-26.1c14.1-0.4,25.8,10.7,26.1,24.8C140.7,271.2,129.6,282.9,115.5,283.3z
		"/>
</g>
</svg>
