<?xml version="1.0" encoding="UTF-8"?>
<svg width="285.75mm" height="285.75mm" version="1.1" viewBox="0 0 285.75 285.75" xmlns="http://www.w3.org/2000/svg">
 <g transform="translate(1072.3 -24.308)">
  <g transform="matrix(.84126 0 0 .84126 -645 -778.89)" stroke-width="1.1887">
   <path d="m-356.44 983.69a141.88 141.89 82.29 0 0-112.41 86.652 141.88 141.89 82.29 0 0 77.237 185.19 141.88 141.89 82.29 0 0 185.21-77.235 141.88 141.89 82.29 0 0-77.237-185.19 141.88 141.89 82.29 0 0-72.796-9.4165zm4.916 36.527a105.12 105.12 82.332 0 1 53.849 6.9873 105.12 105.12 82.332 0 1 57.222 137.2 105.12 105.12 82.332 0 1-137.21 57.22 105.12 105.12 82.332 0 1-57.222-137.2 105.12 105.12 82.332 0 1 83.363-64.208z" fill="#fff" fill-rule="evenodd" opacity=".05" stop-color="#000000" style="paint-order:stroke fill markers"/>
   <path d="m-335.38 980.67a1.3229 1.3229 0 0 0-1.3457 1.2988 1.3229 1.3229 0 0 0 1.2988 1.3457c7.4631 0.13445 14.844 0.86398 22.084 2.1543a1.3229 1.3229 0 0 0 1.5352-1.0703 1.3229 1.3229 0 0 0-1.0703-1.5332c-7.376-1.3146-14.898-2.0583-22.502-2.1953zm-30.52 2.7305c-3.4796 0.69055-6.9577 1.5134-10.432 2.4727a1.3229 1.3229 0 0 0-0.92383 1.627 1.3229 1.3229 0 0 0 1.627 0.92383c3.4114-0.94201 6.8281-1.7498 10.244-2.4277a1.3229 1.3229 0 0 0 1.041-1.5566 1.3229 1.3229 0 0 0-1.5566-1.0391zm69.926 3.5469a1.3229 1.3229 0 0 0-1.6523 0.87695 1.3229 1.3229 0 0 0 0.87695 1.6543c32.194 9.8721 60.368 31.098 78.572 60.301 3.8413 6.1622 7.2385 12.68 10.137 19.521a1.3229 1.3229 0 0 0 1.7344 0.7012 1.3229 1.3229 0 0 0 0.70117-1.7344c-2.9525-6.9698-6.4143-13.61-10.328-19.889-18.548-29.754-47.244-51.375-80.041-61.432zm-89.545 1.791c-2.5333 0.88287-5.0278 1.8308-7.4824 2.8418a1.3229 1.3229 0 0 0-0.72071 1.7266 1.3229 1.3229 0 0 0 1.7285 0.72071c2.4096-0.99239 4.8585-1.9242 7.3457-2.791a1.3229 1.3229 0 0 0 0.8125-1.6836 1.3229 1.3229 0 0 0-1.6836-0.81446zm-40.387 21.844c-10.596 8.174-19.914 17.736-27.756 28.336a1.3229 1.3229 0 0 0 0.27734 1.8496 1.3229 1.3229 0 0 0 1.8496-0.2754c7.6985-10.406 16.844-19.792 27.244-27.814a1.3229 1.3229 0 0 0 0.24024-1.8555 1.3229 1.3229 0 0 0-1.8555-0.2402zm-33.586 37.553a1.3229 1.3229 0 0 0-0.82226 0.5899c-20.398 32.9-27.539 73.897-16.428 114.15 3.9475 14.299 9.9216 27.499 17.525 39.371a1.3229 1.3229 0 0 0 1.8281 0.4004 1.3229 1.3229 0 0 0 0.40039-1.8281c-7.4629-11.652-13.327-24.607-17.203-38.648-10.912-39.525-3.8983-79.749 16.127-112.05a1.3229 1.3229 0 0 0-0.42774-1.8203 1.3229 1.3229 0 0 0-1-0.1641zm258.52 37.215a1.3229 1.3229 0 0 0-0.92383 1.6269c5.0893 18.435 6.279 37.019 4.0684 54.883a1.3229 1.3229 0 0 0 1.1504 1.4746 1.3229 1.3229 0 0 0 1.4746-1.1504c2.2523-18.2 1.04-37.139-4.1426-55.912a1.3229 1.3229 0 0 0-1.627-0.9218zm-4.2949 91.166a1.3229 1.3229 0 0 0-1.7207 0.7324c-7.2719 18.051-18.222 34.514-32.191 48.227a1.3229 1.3229 0 0 0-0.0176 1.8711 1.3229 1.3229 0 0 0 1.8711 0.016c14.232-13.97 25.383-30.735 32.791-49.123a1.3229 1.3229 0 0 0-0.73242-1.7226zm-223.57 56.785a1.3229 1.3229 0 0 0-0.89453 0.4766 1.3229 1.3229 0 0 0 0.18164 1.8613c11.289 9.2842 23.933 16.805 37.459 22.297a1.3229 1.3229 0 0 0 1.7227-0.7266 1.3229 1.3229 0 0 0-0.72852-1.7246c-13.278-5.3914-25.689-12.775-36.771-21.889a1.3229 1.3229 0 0 0-0.96875-0.295zm177.96 2.9434a1.3229 1.3229 0 0 0-0.97657 0.2637c-4.3797 3.375-8.9813 6.508-13.791 9.375a1.3229 1.3229 0 0 0-0.45899 1.8144 1.3229 1.3229 0 0 0 1.8125 0.459c4.9005-2.9211 9.5905-6.114 14.053-9.5527a1.3229 1.3229 0 0 0 0.24023-1.8555 1.3229 1.3229 0 0 0-0.8789-0.5039zm-31.479 18.568a1.3229 1.3229 0 0 0-1.0137 0c-5.4953 2.2991-11.197 4.2767-17.092 5.9043-27.609 7.6235-55.554 6.5017-80.906-1.6914a1.3229 1.3229 0 0 0-1.666 0.8516 1.3229 1.3229 0 0 0 0.85156 1.666c25.827 8.3463 54.311 9.4878 82.426 1.7246 6.0024-1.6574 11.81-3.6716 17.408-6.0137a1.3229 1.3229 0 0 0 0.71094-1.7305 1.3229 1.3229 0 0 0-0.71875-0.7128z" color="#000000" fill="#fff" fill-rule="evenodd" opacity=".1" stroke-linecap="round" stroke-linejoin="round" stroke-width="1.1887" style="paint-order:stroke fill markers"/>
   <ellipse transform="matrix(.92481 .38043 -.38048 .92479 0 0)" cx="115.54" cy="1168.3" rx="105.12" ry="105.12" fill="#fff" fill-rule="evenodd" opacity=".1" stop-color="#000000" stroke="#fff" stroke-linecap="round" stroke-linejoin="round" stroke-width="4.7176" style="paint-order:stroke fill markers"/>
   <ellipse transform="matrix(.92481 .38043 -.38048 .92479 0 0)" cx="115.52" cy="1168.3" rx="81.301" ry="81.299" fill="#fc698a" fill-rule="evenodd" stop-color="#000000" style="paint-order:stroke fill markers"/>
   <path d="m-257.12 1113.6a81.298 81.302 82.349 0 0-6.8376-23.388l-60.404 21.037 3.0098 22.443 63.812 4.3785a81.298 81.302 82.349 0 0 0.42669-24.417 81.298 81.302 82.349 0 0-7e-3 -0.054zm-96.916 1.6284-63.812-4.3786a81.298 81.302 82.349 0 0-0.42668 24.417 81.298 81.302 82.349 0 0 6.8448 23.442l60.404-21.037z" fill="#fed7e0" fill-rule="evenodd" stop-color="#000000" style="paint-order:stroke fill markers"/>
   <path d="m-348.56 1043.9a81.298 81.302 82.349 0 0-23.389 6.8376l21.037 60.4 22.445-3.01 4.3798-63.808a81.298 81.302 82.349 0 0-24.418-0.4263 81.298 81.302 82.349 0 0-0.0539 0.01zm1.627 96.91-4.3798 63.808a81.298 81.302 82.349 0 0 24.418 0.4263 81.298 81.302 82.349 0 0 23.443-6.8448l-21.037-60.4z" fill="#fed7e0" fill-rule="evenodd" stop-color="#000000" style="paint-order:stroke fill markers"/>
   <path d="m-313.46 1065.2a64.001 64.004 82.349 0 0-83.43 34.885 64.001 64.004 82.349 0 0-1.7802 4.8826l-6.9771-2.8701s-4.0902 10.541 0.52903 21.362c1.1945 2.7981 2.491 5.0123 3.6739 6.7228a64.001 64.004 82.349 0 0 39.394 53.44 64.001 64.004 82.349 0 0 65.597-10.25c2.0442-0.383 4.5232-1.044 7.341-2.1917 10.897-4.438 15.41-14.806 15.41-14.806l-6.9771-2.8701a64.001 64.004 82.349 0 0 2.1709-4.7219 64.001 64.004 82.349 0 0-34.84-83.537 64.001 64.004 82.349 0 0-0.11181-0.046z" fill="#690c53" fill-rule="evenodd" opacity=".25" stop-color="#000000" style="paint-order:stroke fill markers"/>
   <ellipse transform="matrix(.92481 .38043 -.38048 .92479 0 0)" cx="115.52" cy="1168.3" rx="53.21" ry="53.209" fill="#0c4869" fill-rule="evenodd" stop-color="#000000" style="paint-order:stroke fill markers"/>
   <path d="m-321.98 1131.8a3.4775 3.4777 82.349 0 0-0.73268-0.2164 3.4775 3.4777 82.349 0 0-4.035 2.8129s-1.8543 10.406-4.1895 21.972c-2.3212 11.498-5.3245 24.492-6.8802 28.342-5.5239 9.9597-30.043 49.534-30.043 49.534a3.4778 3.478 82.349 0 0 0.20092 3.9558l7.6922 9.9742a3.4775 3.4777 82.349 0 0 4.8781 0.6299 3.4775 3.4777 82.349 0 0 0.62935-4.8763l-6.2247-8.0715c2.1754-3.5066 23.525-37.936 29.089-48.006a3.4778 3.478 82.349 0 0 0.17317-0.358c2.327-5.6561 4.9494-18.088 7.3034-29.748s4.2203-22.128 4.2203-22.128a3.4775 3.4777 82.349 0 0-2.0809-3.8168z" color="#000000" color-rendering="auto" dominant-baseline="auto" fill="#8bc9eb" image-rendering="auto" shape-rendering="auto" solid-color="#000000" stop-color="#000000" style="font-feature-settings:normal;font-variant-alternates:normal;font-variant-caps:normal;font-variant-east-asian:normal;font-variant-ligatures:normal;font-variant-numeric:normal;font-variant-position:normal;font-variation-settings:normal;inline-size:0;isolation:auto;mix-blend-mode:normal;shape-margin:0;shape-padding:0;text-decoration-color:#000000;text-decoration-line:none;text-decoration-style:solid;text-indent:0;text-orientation:mixed;text-transform:none;white-space:normal"/>
   <path d="m-349.16 1120.7a3.4775 3.4777 82.349 0 0-4.2888 1.3113s-6.5535 10.153-13.336 20.858c-3.3911 5.3525-6.8405 10.842-9.5649 15.287-1.3622 2.2223-2.542 4.1814-3.4532 5.7484-0.91119 1.567-1.4977 2.5653-1.9274 3.6096-0.48581 1.1808-0.58239 1.8499-1.0314 3.5821-0.44906 1.7322-1.027 4.0423-1.6904 6.74-1.3268 5.3953-2.9952 12.336-4.6311 19.2-2.9902 12.546-5.3871 22.782-5.861 24.803l-10.113 1.3564a3.4775 3.4777 82.349 0 0-2.9845 3.9075 3.4775 3.4777 82.349 0 0 3.9092 2.9849l12.485-1.6742a3.4778 3.478 82.349 0 0 2.9239-2.6538s3.1389-13.399 6.4067-27.11c1.6339-6.8552 3.3-13.789 4.6192-19.153 0.65964-2.6823 1.2326-4.9741 1.6683-6.6548s0.95904-3.2352 0.7315-2.6821c0.0193-0.047 0.64291-1.2733 1.5078-2.7607 0.86485-1.4874 2.0256-3.4127 3.3714-5.6081 2.6915-4.3909 6.128-9.8638 9.509-15.2 6.7621-10.673 13.304-20.808 13.304-20.808a3.4775 3.4777 82.349 0 0-1.037-4.8068 3.4775 3.4777 82.349 0 0-0.51759-0.2758z" color="#000000" color-rendering="auto" dominant-baseline="auto" fill="#8bc9eb" image-rendering="auto" shape-rendering="auto" solid-color="#000000" stop-color="#000000" style="font-feature-settings:normal;font-variant-alternates:normal;font-variant-caps:normal;font-variant-east-asian:normal;font-variant-ligatures:normal;font-variant-numeric:normal;font-variant-position:normal;font-variation-settings:normal;inline-size:0;isolation:auto;mix-blend-mode:normal;shape-margin:0;shape-padding:0;text-decoration-color:#000000;text-decoration-line:none;text-decoration-style:solid;text-indent:0;text-orientation:mixed;text-transform:none;white-space:normal"/>
   <path d="m-321.88 1146.3-6.6517-2.253c-0.68071 3.5965-1.509 7.8845-2.4142 12.368-0.38679 1.9159-0.7956 3.8689-1.2105 5.8186l6.5613 2.6991c0.49639-2.3726 0.98798-4.7695 1.4669-7.1418 0.83297-4.1259 1.5985-8.0749 2.2482-11.491zm-31.969-10.828-6.7854-2.2983c-1.9198 3.0035-3.9774 6.2292-6.1531 9.6633-0.86193 1.3605-1.7267 2.7293-2.5833 4.0881l6.5294 2.686c0.64206-1.0173 1.2855-2.0367 1.929-3.0524 2.5374-4.005 4.922-7.7404 7.0634-11.087z" fill="#0c4869" opacity=".25"/>
   <path d="m-358.88 1060.3c-2.7996-1.262-6.6313-2.8753-10.761-4.284-4.1293-1.4088-8.5674-2.6347-12.779-3.0805-4.2114-0.4459-8.4113-0.2663-11.742 2.3018a3.4775 3.4777 82.349 0 0-0.62999 4.8779 3.4775 3.4777 82.349 0 0 4.8781 0.6299c0.94376-0.7278 3.3962-1.25 6.7615-0.8938 3.3654 0.3562 7.4278 1.4372 11.264 2.7459 7.6721 2.6174 14.397 6.0612 14.397 6.0612a3.4775 3.4777 82.349 0 0 4.6829-1.5045 3.4775 3.4777 82.349 0 0-1.5061-4.6833s-1.7666-0.9088-4.5662-2.1708z" color="#000000" color-rendering="auto" dominant-baseline="auto" fill="#8bc9eb" image-rendering="auto" shape-rendering="auto" solid-color="#000000" stop-color="#000000" style="font-feature-settings:normal;font-variant-alternates:normal;font-variant-caps:normal;font-variant-east-asian:normal;font-variant-ligatures:normal;font-variant-numeric:normal;font-variant-position:normal;font-variation-settings:normal;inline-size:0;isolation:auto;mix-blend-mode:normal;shape-margin:0;shape-padding:0;text-decoration-color:#000000;text-decoration-line:none;text-decoration-style:solid;text-indent:0;text-orientation:mixed;text-transform:none;white-space:normal"/>
   <path d="m-280.47 1082.7a3.4775 3.4777 82.349 0 0-4.1802 1.2857 3.4775 3.4777 82.349 0 0 0.94341 4.8275s6.8706 4.6288 13.877 10.533c3.503 2.9519 7.0254 6.2226 9.6572 9.2688 2.6318 3.0463 4.2095 5.9863 4.3881 7.3178a3.4775 3.4777 82.349 0 0 3.9093 2.9849 3.4775 3.4777 82.349 0 0 2.9851-3.9091c-0.53881-4.0177-2.9993-7.4447-6.0196-10.94-3.0203-3.4958-6.7632-6.9432-10.438-10.04-7.3487-6.1925-14.476-10.984-14.476-10.984a3.4775 3.4777 82.349 0 0-0.64693-0.3437z" color="#000000" color-rendering="auto" dominant-baseline="auto" fill="#8bc9eb" image-rendering="auto" shape-rendering="auto" solid-color="#000000" stop-color="#000000" style="font-feature-settings:normal;font-variant-alternates:normal;font-variant-caps:normal;font-variant-east-asian:normal;font-variant-ligatures:normal;font-variant-numeric:normal;font-variant-position:normal;font-variation-settings:normal;inline-size:0;isolation:auto;mix-blend-mode:normal;shape-margin:0;shape-padding:0;text-decoration-color:#000000;text-decoration-line:none;text-decoration-style:solid;text-indent:0;text-orientation:mixed;text-transform:none;white-space:normal"/>
   <path d="m-280.47 1082.7a3.4775 3.4777 82.349 0 0-4.1802 1.2857 3.4775 3.4777 82.349 0 0 0.94341 4.8274s5.5727 3.7571 11.796 8.8142c-0.5073-3.6663-1.4951-8.0642-2.0482-10.392-3.4529-2.5668-5.8646-4.1913-5.8646-4.1913a3.4775 3.4777 82.349 0 0-0.64685-0.3439zm-81.96-23.928c-0.92846-0.3877-1.9204-0.7843-2.9432-1.1819-1.9762 1.5525-4.1479 3.4517-5.6461 5.3224 3.2079 1.1303 6.1848 2.3703 8.5411 3.416l6.1945-4.8093c-0.71841-0.3434-1.557-0.7384-2.6002-1.2086-1.0499-0.4733-2.2447-0.9958-3.5461-1.5386z" fill="#0c4869" opacity=".25"/>
   <path d="m-308.75 1054.1c-23.908-9.8349-50.702-1.8638-65.661 17.766a31.852 31.853 82.349 0 0-29.419 19.734 31.852 31.853 82.349 0 0 17.339 41.574 31.852 31.853 82.349 0 0 0.0223 0.01l-1.8e-4 4e-4 77.288 31.793 1.6e-4 -5e-4a31.852 31.853 82.349 0 0 0.0206 0.01 31.852 31.853 82.349 0 0 41.577-17.338 31.852 31.853 82.349 0 0-7.0154-34.721c3.1853-24.473-10.242-48.99-34.15-58.825z" fill="#fff" fill-rule="evenodd" stop-color="#000000" style="paint-order:stroke fill markers"/>
   <g transform="matrix(.81036 .33335 -.33338 .81033 -674.35 228.72)" stroke-width="1.3566">
    <path d="m719.93 747.3c-5.0963 2.1601-8.8838 6.8222-9.8215 12.434l-5.8356-4.2164c-0.16297-0.0582-0.50739-0.2609-0.50736-0.0878-2e-5 0.63851-1.2096 0.39724-1.426 0.99794-0.28215 0.78475 0.12527 1.6496 0.91009 1.9316l6.6482 4.8042c0.37576 8.7337 7.6011 15.729 16.425 15.729 8.5545-1e-5 15.606-6.5746 16.371-14.933l3.0743-1.2e-4c0.76574 8.3588 7.8165 14.933 16.371 14.933 8.8124 0 16.03-6.9763 16.424-15.694l7.0452-4.8395c0.78401-0.28282 1.1904-1.1473 0.90801-1.9315-0.21687-0.60208-1.4296-0.35798-1.4296-0.99794 1e-5 -0.1711-0.34089 0.0304-0.50202 0.0879l-6.2208 4.2733c-1.2755-7.8048-8.0663-13.785-16.225-13.785-8.5545 0-15.606 6.5746-16.371 14.934l-3.0743 8e-5c-0.76555-8.359-7.8166-14.934-16.371-14.934-2.2659 0-4.4264 0.46101-6.3928 1.2945zm1.1605 2.7775c1.6068-0.67788 3.3743-1.0524 5.2323-1.0524 7.4318 1e-5 13.424 5.9919 13.424 13.424 1e-5 7.4318-5.9921 13.424-13.424 13.424-7.4318-1e-5 -13.424-5.9921-13.424-13.424 2e-5 -5.5738 3.3706-10.338 8.1911-12.371zm35.816-8e-5c1.6068-0.67788 3.3749-1.0526 5.2328-1.0526 7.4318 1e-5 13.424 5.9921 13.424 13.424 1e-5 7.4318-5.9914 13.424-13.423 13.424-7.4318 0-13.424-5.9919-13.424-13.424-2e-5 -5.5739 3.3703-10.338 8.1909-12.372z" color="#000000" color-rendering="auto" dominant-baseline="auto" fill="#a467cc" image-rendering="auto" opacity=".25" shape-rendering="auto" solid-color="#000000" stop-color="#000000" style="font-feature-settings:normal;font-variant-alternates:normal;font-variant-caps:normal;font-variant-east-asian:normal;font-variant-ligatures:normal;font-variant-numeric:normal;font-variant-position:normal;font-variation-settings:normal;inline-size:0;isolation:auto;mix-blend-mode:normal;paint-order:stroke fill markers;shape-margin:0;shape-padding:0;text-decoration-color:#000000;text-decoration-line:none;text-decoration-style:solid;text-indent:0;text-orientation:mixed;text-transform:none;white-space:normal"/>
    <path d="m741.25 757.92a1.5098 1.5098 0 0 0-1.5098 1.5098 1.5098 1.5098 0 0 0 1.5098 1.5098h5.9492a1.5098 1.5098 0 0 0 1.5098-1.5098 1.5098 1.5098 0 0 0-1.5098-1.5098z" color="#000000" color-rendering="auto" dominant-baseline="auto" fill="#a467cc" image-rendering="auto" shape-rendering="auto" solid-color="#000000" stop-color="#000000" style="font-feature-settings:normal;font-variant-alternates:normal;font-variant-caps:normal;font-variant-east-asian:normal;font-variant-ligatures:normal;font-variant-numeric:normal;font-variant-position:normal;font-variation-settings:normal;inline-size:0;isolation:auto;mix-blend-mode:normal;paint-order:stroke fill markers;shape-margin:0;shape-padding:0;text-decoration-color:#000000;text-decoration-line:none;text-decoration-style:solid;text-indent:0;text-orientation:mixed;text-transform:none;white-space:normal"/>
    <path d="m703.56 755.1a1.5098 1.5098 0 0 0-1.4258 0.99805 1.5098 1.5098 0 0 0 0.91016 1.9316l7.8262 2.8184a1.5098 1.5098 0 0 0 1.9316-0.91016 1.5098 1.5098 0 0 0-0.9082-1.9316l-7.8262-2.8184a1.5098 1.5098 0 0 0-0.50782-0.0879z" color="#000000" color-rendering="auto" dominant-baseline="auto" fill="#a467cc" image-rendering="auto" shape-rendering="auto" solid-color="#000000" stop-color="#000000" style="font-feature-settings:normal;font-variant-alternates:normal;font-variant-caps:normal;font-variant-east-asian:normal;font-variant-ligatures:normal;font-variant-numeric:normal;font-variant-position:normal;font-variation-settings:normal;inline-size:0;isolation:auto;mix-blend-mode:normal;paint-order:stroke fill markers;shape-margin:0;shape-padding:0;text-decoration-color:#000000;text-decoration-line:none;text-decoration-style:solid;text-indent:0;text-orientation:mixed;text-transform:none;white-space:normal"/>
    <path d="m784.89 755.1a1.5098 1.5098 0 0 0-0.50195 0.0879l-7.8262 2.8184a1.5098 1.5098 0 0 0-0.9082 1.9316 1.5098 1.5098 0 0 0 1.9316 0.91016l7.8262-2.8184a1.5098 1.5098 0 0 0 0.90821-1.9316 1.5098 1.5098 0 0 0-1.4297-0.99805z" color="#000000" color-rendering="auto" dominant-baseline="auto" fill="#a467cc" image-rendering="auto" shape-rendering="auto" solid-color="#000000" stop-color="#000000" style="font-feature-settings:normal;font-variant-alternates:normal;font-variant-caps:normal;font-variant-east-asian:normal;font-variant-ligatures:normal;font-variant-numeric:normal;font-variant-position:normal;font-variation-settings:normal;inline-size:0;isolation:auto;mix-blend-mode:normal;paint-order:stroke fill markers;shape-margin:0;shape-padding:0;text-decoration-color:#000000;text-decoration-line:none;text-decoration-style:solid;text-indent:0;text-orientation:mixed;text-transform:none;white-space:normal"/>
    <path d="m741.25 759.43c0 8.2478-6.6861 14.934-14.934 14.934-8.2478 0-14.934-6.6861-14.934-14.934 0-8.2478 6.6861-14.934 14.934-14.934 8.2478 0 14.934 6.6861 14.934 14.934z" color="#000000" color-rendering="auto" dominant-baseline="auto" fill="#aef7f4" fill-rule="evenodd" image-rendering="auto" shape-rendering="auto" solid-color="#000000" stop-color="#000000" style="font-feature-settings:normal;font-variant-alternates:normal;font-variant-caps:normal;font-variant-east-asian:normal;font-variant-ligatures:normal;font-variant-numeric:normal;font-variant-position:normal;font-variation-settings:normal;inline-size:0;isolation:auto;mix-blend-mode:normal;shape-margin:0;shape-padding:0;text-decoration-color:#000000;text-decoration-line:none;text-decoration-style:solid;text-indent:0;text-orientation:mixed;text-transform:none;white-space:normal"/>
    <path d="m777.07 759.43c0 8.2478-6.6861 14.934-14.934 14.934s-14.934-6.6861-14.934-14.934c0-8.2478 6.6861-14.934 14.934-14.934s14.934 6.6861 14.934 14.934z" color="#000000" color-rendering="auto" dominant-baseline="auto" fill="#aef7f4" fill-rule="evenodd" image-rendering="auto" shape-rendering="auto" solid-color="#000000" stop-color="#000000" style="font-feature-settings:normal;font-variant-alternates:normal;font-variant-caps:normal;font-variant-east-asian:normal;font-variant-ligatures:normal;font-variant-numeric:normal;font-variant-position:normal;font-variation-settings:normal;inline-size:0;isolation:auto;mix-blend-mode:normal;shape-margin:0;shape-padding:0;text-decoration-color:#000000;text-decoration-line:none;text-decoration-style:solid;text-indent:0;text-orientation:mixed;text-transform:none;white-space:normal"/>
    <path transform="matrix(.27924 -.11487 .11488 .27925 -434.23 352.6)" d="m3041.4 2658.7c-4.4235 0.044-8.7881 0.6912-12.986 1.8809l-21.994 82.082c3.5225 3.6226 7.645 6.7479 12.303 9.2071l24.957-93.137c-0.761-0.028-1.5211-0.041-2.2793-0.033zm10.541 1.0528-25.555 95.371c10.15 3.3564 20.718 3.2404 30.322 0.2129l21.6-80.609c-4.7543-5.1878-10.689-9.4447-17.627-12.299-2.8771-1.1836-5.8017-2.0612-8.7402-2.6758zm101.66 44.113-24.982 93.232c1.333 0.6959 2.7032 1.3464 4.1211 1.9297 5.7897 2.3816 11.77 3.5702 17.676 3.705l24.873-92.83c-1.5778-0.8605-3.2136-1.6502-4.914-2.3496-5.4947-2.2604-11.162-3.4562-16.774-3.6875zm30.562 12.238-22.961 85.691c4.9576-0.9906 9.731-2.7364 14.152-5.1601l18.486-68.994c-2.5902-4.2772-5.8432-8.1754-9.6778-11.537z" fill="#fff" opacity=".5"/>
    <path d="m726.32 742.98c-9.0637 0-16.443 7.3797-16.443 16.443 0 9.0637 7.3797 16.443 16.443 16.443 9.0637 0 16.443-7.3797 16.443-16.443 0-9.0637-7.3797-16.443-16.443-16.443zm0 3.0195c7.4318 0 13.424 5.992 13.424 13.424s-5.992 13.424-13.424 13.424-13.424-5.992-13.424-13.424 5.992-13.424 13.424-13.424z" color="#000000" color-rendering="auto" dominant-baseline="auto" fill="#d378dc" fill-rule="evenodd" image-rendering="auto" shape-rendering="auto" solid-color="#000000" stop-color="#000000" style="font-feature-settings:normal;font-variant-alternates:normal;font-variant-caps:normal;font-variant-east-asian:normal;font-variant-ligatures:normal;font-variant-numeric:normal;font-variant-position:normal;font-variation-settings:normal;inline-size:0;isolation:auto;mix-blend-mode:normal;shape-margin:0;shape-padding:0;text-decoration-color:#000000;text-decoration-line:none;text-decoration-style:solid;text-indent:0;text-orientation:mixed;text-transform:none;white-space:normal"/>
    <path d="m762.14 742.98c-9.0637 0-16.443 7.3797-16.443 16.443s7.3797 16.443 16.443 16.443 16.443-7.3797 16.443-16.443-7.3797-16.443-16.443-16.443zm0 3.0195c7.4318 0 13.424 5.992 13.424 13.424 0 7.4318-5.992 13.424-13.424 13.424-7.4318 0-13.424-5.992-13.424-13.424 0-7.4318 5.992-13.424 13.424-13.424z" color="#000000" color-rendering="auto" dominant-baseline="auto" fill="#d378dc" fill-rule="evenodd" image-rendering="auto" shape-rendering="auto" solid-color="#000000" stop-color="#000000" style="font-feature-settings:normal;font-variant-alternates:normal;font-variant-caps:normal;font-variant-east-asian:normal;font-variant-ligatures:normal;font-variant-numeric:normal;font-variant-position:normal;font-variation-settings:normal;inline-size:0;isolation:auto;mix-blend-mode:normal;shape-margin:0;shape-padding:0;text-decoration-color:#000000;text-decoration-line:none;text-decoration-style:solid;text-indent:0;text-orientation:mixed;text-transform:none;white-space:normal"/>
    <path transform="matrix(.27924 -.11487 .11488 .27925 -434.23 352.6)" d="m3041.4 2653.7c-2.776 0.03-5.5301 0.2802-8.2441 0.7266v10.107c5.6651-1.1349 11.594-1.1683 17.475 0.023v-10.144c-3.0796-0.5001-6.1668-0.7454-9.2305-0.7129zm19.793 3.5488-5.0762 8.7911c0.9008 0.3055 1.7972 0.6309 2.6895 0.998 4.6842 1.9269 8.8534 4.5626 12.453 7.7188l5.0723-8.7832c-4.0492-3.311-8.6383-6.0937-13.719-8.1836-0.4709-0.1938-0.9467-0.3615-1.4199-0.5411zm-38.586 0.024c-5.4583 2.0708-10.585 4.9973-15.148 8.709l5.0625 8.7675c4.4378-3.9059 9.5943-6.8598 15.135-8.7324zm-22.891 16.438c-3.3124 4.0498-6.0948 8.6409-8.1855 13.723-0.1932 0.4697-0.3619 0.9442-0.541 1.4161l8.791 5.0761c0.3052-0.8994 0.6315-1.7965 0.998-2.6875 1.9276-4.6852 4.5633-8.8549 7.7207-12.455zm84.346 0-8.7695 5.0625c3.9074 4.4378 6.8631 9.5936 8.7363 15.135l8.7442-5.0488c-2.0715-5.4585-4.9982-10.585-8.711-15.148zm-95.91 25.699c-0.9538 5.8704-0.9254 11.765 0.014 17.475h10.109c-1.135-5.665-1.1686-11.595 0.024-17.475zm97.359 0c1.135 5.665 1.1686 11.595-0.023 17.475h10.146c0.9536-5.8701 0.9234-11.766-0.016-17.475zm-1.5078 22.961c-0.3054 0.9001-0.6292 1.7979-0.9961 2.6895-1.9275 4.6852-4.5652 8.8549-7.7226 12.455l8.7851 5.0722c3.3124-4.0498 6.0949-8.641 8.1856-13.723 0.1934-0.4701 0.3617-0.9437 0.541-1.416zm-84.246 0.016-8.7441 5.0488c2.0713 5.4581 4.9966 10.586 8.709 15.148l8.7695-5.0625c-3.9073-4.4377-6.8612-9.5937-8.7344-15.135zm12.768 19.154-5.0722 8.7832c4.0492 3.3109 8.6401 6.0936 13.721 8.1836 0.4714 0.1939 0.9462 0.3632 1.4199 0.5429l5.0762-8.7929c-0.9008-0.3056-1.7992-0.631-2.6915-0.9981-4.6845-1.927-8.8532-4.5624-12.453-7.7187zm58.738 0.01c-4.4378 3.9059-9.5923 6.8618-15.133 8.7343l5.0469 8.7422c5.4581-2.0707 10.585-4.9976 15.148-8.7089zm-38.107 10.191v10.144c5.8702 0.9533 11.765 0.9254 17.475-0.014v-10.107c-5.6647 1.1349-11.595 1.1681-17.475-0.023z" fill="#ffe277" fill-rule="evenodd" stop-color="#000000" style="paint-order:stroke fill markers"/>
    <path d="m755.74 744.28c-0.77178 0.32713-1.512 0.71351-2.2186 1.1499l1.1612 2.8225c1.4515-0.9677 3.1034-1.6582 4.8823-2.0008l-1.1654-2.8329c-0.9174 0.21412-1.8076 0.50026-2.6594 0.86127zm5.9347-1.2827-0.40751 3.0381c0.28664-0.0182 0.57433-0.0303 0.86567-0.0303 1.5294 0 2.9964 0.25709 4.3642 0.72496l0.40733-3.0354c-1.5111-0.45946-3.1122-0.70937-4.771-0.70937-0.15376-2e-5 -0.30589 8e-3 -0.45866 0.012zm-10.772 4.4391c-1.2863 1.2053-2.3818 2.6115-3.2295 4.1722l2.4209 1.8668c0.79048-1.6005 1.891-3.0178 3.223-4.1772zm-4.5036 7.2198c-0.45969 1.5114-0.7092 3.1131-0.70919 4.7724 1e-5 0.15336 7e-3 0.30525 0.0116 0.4576l3.038 0.40766c-0.0181-0.28622-0.03-0.57422-0.0301-0.86514 0-1.5298 0.25696-2.997 0.72502-4.365zm23.553-9.6881-1.8672 2.4211c1.6009 0.79041 3.0186 1.8906 4.1783 3.2228l1.8617-2.4144c-1.2055-1.2863-2.6118-2.3818-4.1728-3.2296zm-23.829 18.194c0.40808 1.7489 1.0932 3.3918 2.0114 4.8783l2.8229-1.1613c-0.96776-1.4516-1.6584-3.1036-2.001-4.8825zm27.187-11.184c0.96775 1.4516 1.6584 3.1036 2.001 4.8825l2.8333-1.1656c-0.4081-1.7488-1.0938-3.3916-2.0119-4.878zm2.2168 6.5851c0.0181 0.28644 0.0308 0.57435 0.0308 0.86548 2e-5 1.5298-0.25749 2.9972-0.72556 4.3653l3.0359 0.40724c0.45969-1.5114 0.70922-3.1132 0.70923-4.7724 0-0.1535-7e-3 -0.30508-0.0116-0.45757zm-23.523 9.6821-1.8617 2.4144c1.2054 1.2862 2.6114 2.3821 4.1722 3.2298l1.8672-2.4211c-1.6009-0.79039-3.0181-1.8909-4.1777-3.2231zm5.7658 3.8822-0.4073 3.0354c1.5111 0.45943 3.1127 0.70914 4.7715 0.70915 0.15391-1e-5 0.30595-7e-3 0.45887-0.0115l0.4073-3.0386c-0.28664 0.0181-0.5749 0.0305-0.86624 0.0305-1.5295 1e-5 -2.9963-0.25706-4.3642-0.72493zm16.403-6.7453c-0.79048 1.6005-1.8902 3.0181-3.2222 4.1774l2.4136 1.8615c1.2862-1.2052 2.3817-2.6116 3.2295-4.1722zm-9.4703 7.2235 1.1654 2.8329c1.7487-0.40813 3.3917-1.0931 4.878-2.0112l-1.1612-2.8225c-1.4514 0.96766-3.1036 1.6582-4.8823 2.0008z" fill="#ffe277" fill-rule="evenodd" stop-color="#000000" style="paint-order:stroke fill markers"/>
   </g>
   <path d="m-390.66 1054.8a3.4775 3.4777 82.349 0 0-3.501 0.4399c-5.9648 4.5997-7.7502 13.238-8.9697 20.754-1.2194 7.516-1.328 14.136-1.328 14.136a3.4775 3.4777 82.349 0 0 3.4172 3.5376 3.4775 3.4777 82.349 0 0 3.5378-3.4172s0.11116-6.1999 1.2375-13.142c1.1264-6.9423 3.8133-14.401 6.3533-16.36a3.4775 3.4777 82.349 0 0 0.63-4.8779 3.4775 3.4777 82.349 0 0-1.3771-1.0698z" color="#000000" color-rendering="auto" dominant-baseline="auto" fill="#8bc9eb" image-rendering="auto" shape-rendering="auto" solid-color="#000000" stop-color="#000000" style="font-feature-settings:normal;font-variant-alternates:normal;font-variant-caps:normal;font-variant-east-asian:normal;font-variant-ligatures:normal;font-variant-numeric:normal;font-variant-position:normal;font-variation-settings:normal;inline-size:0;isolation:auto;mix-blend-mode:normal;shape-margin:0;shape-padding:0;text-decoration-color:#000000;text-decoration-line:none;text-decoration-style:solid;text-indent:0;text-orientation:mixed;text-transform:none;white-space:normal"/>
   <path d="m-251.04 1112.2a3.4775 3.4777 82.349 0 0-1.7583-0.22 3.4775 3.4777 82.349 0 0-2.9851 3.9091c0.4263 3.1788-2.9153 10.368-7.0006 16.094-4.0853 5.7252-8.3678 10.209-8.3678 10.209a3.4775 3.4777 82.349 0 0 0.10728 4.9166 3.4775 3.4777 82.349 0 0 4.9175-0.109s4.583-4.7791 9.0059-10.977c4.4229-6.1983 9.2333-13.592 8.2321-21.057a3.4775 3.4777 82.349 0 0-2.151-2.7649z" color="#000000" color-rendering="auto" dominant-baseline="auto" fill="#8bc9eb" image-rendering="auto" shape-rendering="auto" solid-color="#000000" stop-color="#000000" style="font-feature-settings:normal;font-variant-alternates:normal;font-variant-caps:normal;font-variant-east-asian:normal;font-variant-ligatures:normal;font-variant-numeric:normal;font-variant-position:normal;font-variation-settings:normal;inline-size:0;isolation:auto;mix-blend-mode:normal;shape-margin:0;shape-padding:0;text-decoration-color:#000000;text-decoration-line:none;text-decoration-style:solid;text-indent:0;text-orientation:mixed;text-transform:none;white-space:normal"/>
   <path d="m-337.3 1016.3a1.3229 1.3229 0 0 0-1.3262 1.3204 1.3229 1.3229 0 0 0 1.3184 1.3261c4.1261 0.013 8.2726 0.2703 12.42 0.7793a1.3229 1.3229 0 0 0 1.4746-1.1523 1.3229 1.3229 0 0 0-1.1524-1.4746c-4.2522-0.522-8.504-0.7857-12.734-0.7989zm-12.834 0.7286c-14.874 1.7398-29.207 6.5571-42.064 14.059a1.3229 1.3229 0 0 0-0.47461 1.8086 1.3229 1.3229 0 0 0 1.8086 0.4765c12.544-7.3185 26.53-12.018 41.039-13.715a1.3229 1.3229 0 0 0 1.1602-1.4688 1.3229 1.3229 0 0 0-1.4688-1.1601zm40.471 2.9804a1.3229 1.3229 0 0 0-1.6211 0.9336 1.3229 1.3229 0 0 0 0.9336 1.6211c4.2919 1.1576 8.5589 2.5999 12.779 4.336 19.768 8.1318 35.731 21.574 46.934 38a1.3229 1.3229 0 0 0 1.8379 0.3476 1.3229 1.3229 0 0 0 0.34766-1.8379c-11.484-16.838-27.86-30.626-48.113-38.957-4.3241-1.7787-8.6981-3.2568-13.098-4.4434zm-102.79 28.172a1.3229 1.3229 0 0 0-1.8711 0c-9.7125 9.7632-17.708 21.559-23.271 35.082a1.3229 1.3229 0 0 0 0.71875 1.7286 1.3229 1.3229 0 0 0 1.7266-0.7207c5.4303-13.199 13.228-24.7 22.701-34.223a1.3229 1.3229 0 0 0-4e-3 -1.8711zm166.42 21.449a1.3229 1.3229 0 0 0-0.48046 1.8086c5.3643 9.2523 9.3071 19.284 11.674 29.727a1.3229 1.3229 0 0 0 1.582 0.998 1.3229 1.3229 0 0 0 0.99804-1.584c-2.4259-10.704-6.4664-20.985-11.965-30.469a1.3229 1.3229 0 0 0-1.8086-0.4805zm-194.51 26.262a1.3229 1.3229 0 0 0-1.6191 0.9415c-1.4557 5.4943-2.4563 11.028-3.0234 16.555-2.6876 26.192 4.3903 52.224 19.223 73.285a1.3229 1.3229 0 0 0 1.8418 0.3203 1.3229 1.3229 0 0 0 0.32032-1.8437c-14.469-20.546-21.375-45.947-18.754-71.492 0.55315-5.3904 1.5312-10.787 2.9512-16.146a1.3229 1.3229 0 0 0-0.93945-1.6192zm209.32 36.725a1.3229 1.3229 0 0 0-1.4375 1.1972c-0.92818 10.284-3.395 20.605-7.5312 30.658-11.643 28.299-34.174 48.808-60.754 58.695a1.3229 1.3229 0 0 0-0.7793 1.7012 1.3229 1.3229 0 0 0 1.7012 0.7793c27.243-10.134 50.35-31.176 62.279-60.17 4.2378-10.3 6.7671-20.882 7.7188-31.426a1.3229 1.3229 0 0 0-1.1973-1.4355zm-185.54 62.053a1.3229 1.3229 0 0 0-0.95313 0.3398 1.3229 1.3229 0 0 0-0.0957 1.8672c3.7717 4.1746 7.8927 8.0774 12.342 11.658a1.3229 1.3229 0 0 0 1.8594-0.2011 1.3229 1.3229 0 0 0-0.20117-1.8594c-4.3392-3.4924-8.3581-7.2993-12.037-11.371a1.3229 1.3229 0 0 0-0.91406-0.4336zm31.842 23.924a1.3229 1.3229 0 0 0-1.7754 0.5918 1.3229 1.3229 0 0 0 0.5918 1.7754c2.3824 1.1916 4.8255 2.3046 7.3281 3.334a1.3229 1.3229 0 0 0 1.7266-0.7207 1.3229 1.3229 0 0 0-0.71875-1.7266c-2.4426-1.0047-4.8279-2.0913-7.1524-3.2539zm13.758 5.7207a1.3229 1.3229 0 0 0-1.6758 0.8321 1.3229 1.3229 0 0 0 0.83204 1.6757c1.9094 0.642 3.8263 1.2261 5.748 1.7559a1.3229 1.3229 0 0 0 1.627-0.9219 1.3229 1.3229 0 0 0-0.92383-1.6269c-1.8747-0.5169-3.7443-1.0885-5.6074-1.7149zm61.967 1.5449c-9.299 2.6155-18.983 3.9672-28.785 3.9415a1.3229 1.3229 0 0 0-1.3281 1.3183 1.3229 1.3229 0 0 0 1.3203 1.3281c10.05 0.026 19.978-1.3602 29.51-4.041a1.3229 1.3229 0 0 0 0.91601-1.6308 1.3229 1.3229 0 0 0-1.6328-0.9161z" color="#000000" fill="#fff" fill-rule="evenodd" opacity=".25" stroke-linecap="round" stroke-linejoin="round" stroke-width="1.1887" style="paint-order:stroke fill markers"/>
  </g>
 </g>
</svg>
