<svg id="Layer_1" data-name="Layer 1" xmlns="http://www.w3.org/2000/svg" viewBox="100 100 300 300">
    <defs>
        <style>.cls-1{fill:#fff;}.cls-2{fill:#48c0d8;}.cls-3{fill:#ffd55e;}.cls-4{fill:#333;}</style>
    </defs>
    <path class="cls-2"
          d="M366.19,327.45H300.06l-15.88,27.68a3.67,3.67,0,0,1-6.27.15l-13.51-28-65.42.2A13.5,13.5,0,0,1,185.52,314V214.48A13.5,13.5,0,0,1,199,201H366.19a13.5,13.5,0,0,1,13.46,13.46V314A13.5,13.5,0,0,1,366.19,327.45Z"/>
    <path class="cls-1"
          d="M326.14,282.26H260l-15.88,27.68a3.66,3.66,0,0,1-6.27.15l-13.51-28-65.42.2a13.49,13.49,0,0,1-13.46-13.46V169.29a13.5,13.5,0,0,1,13.46-13.46H326.14a13.5,13.5,0,0,1,13.46,13.46V268.8A13.5,13.5,0,0,1,326.14,282.26Z"/>
    <path class="cls-3"
          d="M331.26,274.57H265.13l-15.88,27.68a3.67,3.67,0,0,1-6.28.15l-13.5-28-65.42.2a13.49,13.49,0,0,1-13.46-13.46V161.6a13.5,13.5,0,0,1,13.46-13.46H331.26a13.5,13.5,0,0,1,13.46,13.46v99.51A13.49,13.49,0,0,1,331.26,274.57Z"/>
    <path class="cls-4"
          d="M361.13,197.9H344.88V166.69a21.56,21.56,0,0,0-21.54-21.54H158.87a21.56,21.56,0,0,0-21.53,21.54v98.92a21.56,21.56,0,0,0,21.53,21.54h16.25v31.21a21.56,21.56,0,0,0,21.54,21.54h59.22l19.52,33a4.06,4.06,0,0,0,7,0l19.51-33h59.23a21.56,21.56,0,0,0,21.53-21.54V219.43A21.56,21.56,0,0,0,361.13,197.9ZM145.46,265.61V166.69a13.43,13.43,0,0,1,13.41-13.42H323.34a13.43,13.43,0,0,1,13.42,13.42v98.92A13.43,13.43,0,0,1,323.34,279H261.8a4.07,4.07,0,0,0-3.49,2l-17.2,29.05L223.91,281a4.07,4.07,0,0,0-3.5-2H158.87A13.43,13.43,0,0,1,145.46,265.61Zm229.08,52.75a13.43,13.43,0,0,1-13.41,13.42H299.59a4,4,0,0,0-3.5,2l-17.2,29.05-17.2-29.05a4,4,0,0,0-3.49-2H196.66a13.43,13.43,0,0,1-13.42-13.42V287.15H218.1l19.51,33a4.06,4.06,0,0,0,7,0l19.52-33h59.22a21.56,21.56,0,0,0,21.54-21.54V206h16.25a13.43,13.43,0,0,1,13.41,13.41Z"/>
</svg>