<svg id="Ebene_1" data-name="Ebene 1" xmlns="http://www.w3.org/2000/svg" xmlns:xlink="http://www.w3.org/1999/xlink" viewBox="0 0 800 800"><defs><style>.cls-1{fill:none;}.cls-2{fill:#1c8adb;}.cls-3{clip-path:url(#clip-path);}.cls-4{opacity:0.42;fill:url(#Unbenannter_Verlauf_10);}.cls-5{fill:#fff;}</style><clipPath id="clip-path"><circle class="cls-1" cx="400" cy="400" r="400"/></clipPath><linearGradient id="Unbenannter_Verlauf_10" x1="409.33" y1="390.67" x2="167.87" y2="632.13" gradientUnits="userSpaceOnUse"><stop offset="0"/><stop offset="1" stop-opacity="0"/></linearGradient></defs><circle class="cls-2" cx="400" cy="400" r="400"/><g class="cls-3"><path class="cls-4" d="M281.49,791.05,539.87,532.67c7.28-7,11-14.76,11-23.08V290.41c0-17.42-16.4-32.36-47.41-43.19-27.77-9.7-64.53-15-103.49-15s-75.72,5.34-103.49,15c-17.14,6-29.8,13.23-37.71,21.44L8.07,519.4Q43.61,748.86,281.49,791.05Z"/></g><path id="rect4135" class="cls-5" d="M252,449.05l-2.51,14.12a53.09,53.09,0,0,0-9.27,2.41L231,454.66l-11.13,6.43,4.76,13.32a53.25,53.25,0,0,0-6.94,6.82l-13.18-4.78-6.43,11.13,10.57,9a52.36,52.36,0,0,0-2.66,9.6l-13.55,2.41v12.85L206,523.87a53.36,53.36,0,0,0,2.54,9.71l-10.47,8.81,6.43,11.13,12.83-4.59a52.88,52.88,0,0,0,7.16,7.19l-4.63,12.76L231,575.31l8.8-10.37a52.72,52.72,0,0,0,9.8,2.63L252,581h12.85l2.44-13.4a53.38,53.38,0,0,0,9.69-2.7l8.87,10.46,11.13-6.43-4.73-13.06a52.84,52.84,0,0,0,7-7l13.14,4.71,6.43-11.14-10.82-9.1a52.86,52.86,0,0,0,2.5-9.35l13.92-2.53V508.56l-14.07-2.5a52.26,52.26,0,0,0-2.5-9.19l10.95-9.29-6.43-11.14-13.51,4.9a52.85,52.85,0,0,0-6.7-6.68l4.86-13.57-11.14-6.43-9.25,11a52.24,52.24,0,0,0-9.16-2.52l-2.57-14.1Zm6.43,45.35A20.6,20.6,0,0,1,279,515h0a20.6,20.6,0,0,1-20.6,20.6h0a20.6,20.6,0,0,1-20.6-20.6h0a20.6,20.6,0,0,1,20.6-20.6Zm0,8.24A12.36,12.36,0,1,0,270.75,515,12.36,12.36,0,0,0,258.39,502.64Z"/><path class="cls-5" d="M503.49,247.22c-27.77-9.7-64.53-15-103.49-15s-75.72,5.34-103.49,15c-31,10.83-47.41,25.77-47.41,43.19V433.09a83.82,83.82,0,0,1,9.29-.53c2.6,0,5.17.13,7.71.37V391.56c7.65,5.63,17.83,10.7,30.41,15.1,27.77,9.69,64.53,15,103.49,15s75.72-5.34,103.49-15c12.58-4.4,22.76-9.47,30.41-15.1v45c0,17.21-50.94,41.22-133.9,41.22-27.87,0-52.11-2.71-72-7a81.75,81.75,0,0,1,8.91,18.95,384.3,384.3,0,0,0,63.13,5c39,0,75.72-5.34,103.49-15,12.58-4.4,22.76-9.47,30.41-15.1v45c0,17.21-50.94,41.23-133.9,41.23a358.37,358.37,0,0,1-64.93-5.55,82.3,82.3,0,0,1-8.22,15.67A372.59,372.59,0,0,0,400,567.82c39,0,75.72-5.35,103.49-15C534.5,542,550.9,527,550.9,509.59V290.41C550.9,273,534.5,258.05,503.49,247.22ZM533.9,363.47c0,17.21-50.94,41.22-133.9,41.22s-133.9-24-133.9-41.22v-45c7.65,5.63,17.83,10.7,30.41,15.09,27.77,9.7,64.52,15,103.49,15s75.72-5.34,103.49-15c12.58-4.39,22.76-9.46,30.41-15.09ZM400,331.63c-83,0-133.9-24-133.9-41.22S317,249.18,400,249.18s133.9,24,133.9,41.23S483,331.63,400,331.63Z"/></svg>