<svg xmlns="http://www.w3.org/2000/svg" viewBox="0 0 1079.89 1055.9"><defs><style>.cls-1{fill:#6c98b8;}.cls-1,.cls-10,.cls-11,.cls-12,.cls-13,.cls-14,.cls-15,.cls-16,.cls-17,.cls-18,.cls-19,.cls-2,.cls-20,.cls-21,.cls-22,.cls-23,.cls-24,.cls-25,.cls-26,.cls-27,.cls-28,.cls-29,.cls-3,.cls-30,.cls-31,.cls-32,.cls-33,.cls-34,.cls-35,.cls-36,.cls-37,.cls-38,.cls-39,.cls-4,.cls-40,.cls-41,.cls-42,.cls-43,.cls-44,.cls-45,.cls-46,.cls-47,.cls-48,.cls-49,.cls-5,.cls-50,.cls-51,.cls-52,.cls-53,.cls-54,.cls-55,.cls-56,.cls-57,.cls-58,.cls-59,.cls-6,.cls-60,.cls-61,.cls-62,.cls-63,.cls-64,.cls-65,.cls-66,.cls-67,.cls-68,.cls-69,.cls-7,.cls-70,.cls-71,.cls-72,.cls-73,.cls-74,.cls-75,.cls-76,.cls-77,.cls-78,.cls-79,.cls-8,.cls-80,.cls-81,.cls-82,.cls-9,.cls-94,.cls-95{fill-rule:evenodd;}.cls-2{fill:#6d99b9;}.cls-3{fill:#6e9aba;}.cls-4{fill:#6f9bba;}.cls-5{fill:#709cbb;}.cls-6{fill:#719dbc;}.cls-7{fill:#739dbd;}.cls-8{fill:#749ebd;}.cls-9{fill:#759fbe;}.cls-10{fill:#76a0bf;}.cls-11{fill:#77a1c0;}.cls-12{fill:#78a2c0;}.cls-13{fill:#79a3c1;}.cls-14{fill:#7aa4c2;}.cls-15{fill:#7ba5c3;}.cls-16{fill:#7ca6c3;}.cls-17{fill:#7da6c4;}.cls-18{fill:#7ea7c5;}.cls-19{fill:#80a8c6;}.cls-20{fill:#81a9c6;}.cls-21{fill:#82aac7;}.cls-22{fill:#83abc8;}.cls-23{fill:#84acc9;}.cls-24{fill:#85adc9;}.cls-25{fill:#86aeca;}.cls-26{fill:#87afcb;}.cls-27{fill:#88afcc;}.cls-28{fill:#89b0cc;}.cls-29{fill:#8ab1cd;}.cls-30{fill:#8cb2ce;}.cls-31{fill:#8db3cf;}.cls-32{fill:#8eb4cf;}.cls-33{fill:#8fb5d0;}.cls-34{fill:#90b6d1;}.cls-35{fill:#91b7d2;}.cls-36{fill:#92b8d2;}.cls-37{fill:#93b8d3;}.cls-38{fill:#94b9d4;}.cls-39{fill:#95bad5;}.cls-40{fill:#96bbd5;}.cls-41{fill:#97bcd6;}.cls-42{fill:#99bdd7;}.cls-43{fill:#9abed8;}.cls-44{fill:#9bbfd8;}.cls-45{fill:#9cc0d9;}.cls-46{fill:#9dc1da;}.cls-47{fill:#9ec1db;}.cls-48{fill:#9fc2db;}.cls-49{fill:#a0c3dc;}.cls-50{fill:#a1c4dd;}.cls-51{fill:#a2c5de;}.cls-52{fill:#a3c6de;}.cls-53{fill:#a4c7df;}.cls-54{fill:#a6c8e0;}.cls-55{fill:#a7c9e1;}.cls-56{fill:#a8cae1;}.cls-57{fill:#a9cae2;}.cls-58{fill:#aacbe3;}.cls-59{fill:#abcce4;}.cls-60{fill:#accde4;}.cls-61{fill:#adcee5;}.cls-62{fill:#aecfe6;}.cls-63{fill:#afd0e7;}.cls-64{fill:#b0d1e7;}.cls-65{fill:#b2d2e8;}.cls-66{fill:#b3d3e9;}.cls-67{fill:#b4d3ea;}.cls-68{fill:#b5d4ea;}.cls-69{fill:#b6d5eb;}.cls-70{fill:#b7d6ec;}.cls-71{fill:#b8d7ed;}.cls-72{fill:#b9d8ed;}.cls-73{fill:#bad9ee;}.cls-74{fill:#bbdaef;}.cls-75{fill:#bcdbf0;}.cls-76{fill:#bddcf0;}.cls-77{fill:#bfdcf1;}.cls-78{fill:#c0ddf2;}.cls-79{fill:#c1def3;}.cls-80{fill:#c2dff3;}.cls-81{fill:#c3e0f4;}.cls-82{fill:#c4e1f5;}.cls-83{opacity:0.55;}.cls-84{fill:aqua;stroke:#fffffd;}.cls-84,.cls-85,.cls-86,.cls-87,.cls-88,.cls-89,.cls-91,.cls-92,.cls-93{stroke-miterlimit:22.93;}.cls-85{fill:#df00ff;}.cls-85,.cls-86,.cls-87,.cls-89,.cls-91,.cls-92,.cls-93{stroke:#fff;}.cls-86{fill:#f9f206;}.cls-87{fill:#f90808;}.cls-88{fill:#06f206;stroke:#fafcfa;}.cls-89{fill:#5103fc;}.cls-90{opacity:0.6;}.cls-91{fill:#ffce00;}.cls-92,.cls-93{fill:#f95006;}.cls-92{stroke-width:0.5px;}.cls-94{fill:#315269;}.cls-95{fill:#1d2d38;}.cls-96,.cls-97{fill:#2a2a29;}.cls-97{font-size:42px;font-family:LucidaSans-Typewriter, Lucida Sans Typewriter;font-style:italic;}</style></defs><g id="Background"><path class="cls-1" d="M874.94,1029.62l75.32-309.27C1068.88,233.23,538.33-10.56,261.65,158.49c-232,141.73-217,708.83,206.24,871.89C467.89,1030.38,881.44,1031.13,874.94,1029.62Z"/><path class="cls-2" d="M870.93,1027.73l74.34-307C1062.41,238.68,537.33-2.62,263.21,165c-230.1,140.7-214.6,702,203.71,863.14C467.58,1028.22,876.69,1029.09,870.93,1027.73Z"/><path class="cls-3" d="M871,1027.82Q907.66,875.41,944.34,723C1060,246.1,540.38,7.3,268.83,173.4,40.6,313.06,56.6,868.62,470,1027.78,471.32,1028,876,1029,871,1027.82Z"/><path class="cls-4" d="M871,1027.91l72.39-302.6c114.15-471.78-400-708.08-668.95-543.46C48.1,320.47,64.59,870.27,473.08,1027.47,475.07,1027.86,875.29,1029,871,1027.91Z"/><path class="cls-5" d="M871.05,1028q35.72-150.19,71.42-300.38C1055.13,261,546.48,27.15,280.06,190.3,55.6,327.88,72.58,871.91,476.17,1027.17,478.81,1027.68,874.59,1028.92,871.05,1028Z"/><path class="cls-6" d="M871.09,1028.09l70.44-298.16c111.17-461.55-392-692.86-655.85-531.18C63.1,335.29,80.57,873.55,479.25,1026.86,482.55,1027.5,873.89,1028.86,871.09,1028.09Z"/><path class="cls-7" d="M871.13,1028.18q34.74-148,69.46-295.93c109.69-456.44-388-685.25-649.29-525-220.71,135.5-202.74,668,191,819.35C486.3,1027.33,873.19,1028.81,871.13,1028.18Z"/><path class="cls-8" d="M871.17,1028.27l68.49-293.71c108.19-451.33-384-677.64-642.74-518.91C78.09,350.11,96.55,876.84,485.41,1026.24,490,1027.15,872.48,1028.75,871.17,1028.27Z"/><path class="cls-9" d="M871.21,1028.36Q905,882.62,938.72,736.87c106.71-446.21-380-670-636.19-512.77-216.94,133.41-198,654.38,186,801.83C493.79,1027,871.78,1028.69,871.21,1028.36Z"/><path class="cls-10" d="M871.25,1028.45l66.54-289.27C1043,298.08,561.73,76.77,308.15,232.54,93.09,364.92,112.53,880.13,491.58,1025.63,497.53,1026.79,871.08,1028.63,871.25,1028.45Z"/><path class="cls-11" d="M871.29,1028.54q32.79-143.52,65.56-287c103.72-436-372.07-654.8-623.08-500.5C100.59,372.33,120.52,881.77,494.66,1025.32,501.27,1026.61,870.38,1028.57,871.29,1028.54Z"/><path class="cls-12" d="M871.33,1028.63l64.59-284.82c102.23-430.88-368.09-647.2-616.54-494.37-211.3,130.3-190.88,634,178.36,775.57C505,1026.44,869.68,1028.51,871.33,1028.63Z"/><path class="cls-13" d="M871.37,1028.72q31.82-141.3,63.61-282.6c100.74-425.76-364.1-639.58-610-488.23C115.58,387.15,136.49,885.05,500.83,1024.7,508.76,1026.26,869,1028.45,871.37,1028.72Z"/><path class="cls-14" d="M871.41,1028.81Q902.73,888.62,934,748.43c99.26-420.65-360.11-632-603.42-482.09C123.08,394.56,144.48,886.7,503.91,1024.39,512.5,1026.08,868.28,1028.4,871.41,1028.81Z"/><path class="cls-15" d="M871.45,1028.9q30.84-139.08,61.66-278.16C1030.87,335.21,577,126.38,336.24,274.79,130.58,402,152.47,888.34,507,1024.09,516.24,1025.9,867.58,1028.34,871.45,1028.9Z"/><path class="cls-16" d="M871.49,1029q30.35-138,60.68-275.93C1028.44,342.63,580,136.31,341.85,283.24,138.07,409.37,160.46,890,510.07,1023.78,520,1025.72,866.88,1028.28,871.49,1029Z"/><path class="cls-17" d="M871.53,1029.08q29.87-136.86,59.71-273.71C1026,350.06,583.07,146.23,347.47,291.68c-201.9,125.1-179,600,165.69,731.79C523.73,1025.54,866.17,1028.22,871.53,1029.08Z"/><path class="cls-18" d="M871.57,1029.17q29.37-135.75,58.73-271.49c93.29-400.2-344.17-601.53-577.21-457.55-200,124.06-176.65,593.14,163.15,723C527.48,1025.37,865.47,1028.16,871.57,1029.17Z"/><path class="cls-19" d="M871.62,1029.26,929.37,760c91.8-395.08-340.2-593.91-570.67-451.41-198.13,123-174.27,586.33,160.62,714.28C531.22,1025.19,864.77,1028.11,871.62,1029.26Z"/><path class="cls-20" d="M871.65,1029.35q28.4-133.53,56.78-267C1018.74,372.33,592.22,176,364.32,317,168.07,439,192.42,896.56,522.4,1022.55,535,1025,864.07,1028.05,871.65,1029.35Z"/><path class="cls-21" d="M871.7,1029.44l55.8-264.82c88.82-384.86-332.23-578.7-557.56-439.14C175.56,446.42,200.41,898.2,525.49,1022.24,538.71,1024.83,863.37,1028,871.7,1029.44Z"/><path class="cls-22" d="M871.74,1029.53q27.4-131.31,54.82-262.6c87.33-379.74-328.24-571.08-551-433-192.49,119.9-167.16,565.91,153,688C542.45,1024.65,862.67,1027.93,871.74,1029.53Z"/><path class="cls-23" d="M871.77,1029.62q26.94-130.18,53.86-260.38c85.83-374.63-324.26-563.47-544.46-426.86-190.61,118.86-164.79,559.1,150.48,679.25C546.19,1024.47,862,1027.87,871.77,1029.62Z"/><path class="cls-24" d="M871.82,1029.71q26.43-129.08,52.87-258.16C1009,402,604.42,215.69,386.79,350.83c-188.73,117.82-162.42,552.3,147.94,670.49C549.94,1024.3,861.27,1027.82,871.82,1029.71Z"/><path class="cls-25" d="M871.86,1029.8q25.95-128,51.89-255.93c82.86-364.41-316.28-548.25-531.34-414.6-186.86,116.78-160,545.5,145.41,661.74C553.68,1024.12,860.57,1027.76,871.86,1029.8Z"/><path class="cls-26" d="M871.9,1029.89Q897.36,903,922.82,776.18c81.37-359.29-312.3-540.64-524.8-408.46-185,115.74-157.67,538.69,142.88,653C557.42,1023.94,859.86,1027.7,871.9,1029.89Z"/><path class="cls-27" d="M871.94,1030q25-125.75,49.94-251.49c79.88-354.18-308.31-533-518.24-402.32C220.55,490.87,248.34,908.06,544,1020.4,561.17,1023.76,859.16,1027.64,871.94,1030Z"/><path class="cls-28" d="M872,1030.07q24.49-124.63,49-249.27c78.39-349.06-304.33-525.41-511.69-396.18C228.05,498.28,256.33,909.7,547.06,1020.09,564.91,1023.58,858.46,1027.58,872,1030.07Z"/><path class="cls-29" d="M872,1030.16q24-123.53,48-247c76.9-344-300.34-517.81-505.13-390C235.55,505.69,264.32,911.34,550.15,1019.78,568.65,1023.4,857.76,1027.52,872,1030.16Z"/><path class="cls-30" d="M872.06,1030.25q23.51-122.41,47-244.82c75.4-338.84-296.36-510.19-498.59-383.91C243,513.1,272.31,913,553.23,1019.47,572.4,1023.23,857.06,1027.47,872.06,1030.25Z"/><path class="cls-31" d="M872.1,1030.34q23-121.3,46-242.6C992.06,454,625.77,285.16,426.11,410c-175.57,110.54-145.81,504.66,130.2,609.2C576.14,1023.05,856.36,1027.41,872.1,1030.34Z"/><path class="cls-32" d="M872.14,1030.43q22.53-120.2,45.07-240.38c72.42-328.61-288.39-495-485.48-371.63C258,527.91,288.28,916.27,559.39,1018.86,579.88,1022.87,855.66,1027.35,872.14,1030.43Z"/><path class="cls-33" d="M872.18,1030.52q22.05-119.09,44.09-238.16c70.94-323.5-284.4-487.36-478.93-365.5-171.8,108.46-141.07,491.06,125.14,591.69C583.63,1022.69,855,1027.29,872.18,1030.52Z"/><path class="cls-34" d="M872.22,1030.61q21.56-118,43.12-235.93C984.78,476.29,634.92,314.93,443,435.31,273,542.73,304.26,919.56,565.56,1018.24,587.37,1022.51,854.26,1027.24,872.22,1030.61Z"/><path class="cls-35" d="M872.26,1030.7Q893.32,913.83,914.4,797c68-313.27-276.43-472.14-465.82-353.23-168,106.38-136.33,477.44,120.06,574.17C591.11,1022.33,853.55,1027.18,872.26,1030.7Z"/><path class="cls-36" d="M872.3,1030.79Q892.88,915,913.47,799.3C979.93,491.14,641,334.78,454.2,452.21,288,557.55,320.24,922.84,571.72,1017.63,594.86,1022.16,852.85,1027.12,872.3,1030.79Z"/><path class="cls-37" d="M872.34,1030.88q20.08-114.63,40.19-229.27c65-303-268.46-456.91-452.72-340.95-164.28,104.3-131.58,463.83,115,556.66C598.6,1022,852.15,1027.06,872.34,1030.88Z"/><path class="cls-38" d="M872.38,1031l39.21-227.05C975.08,506,647.12,354.62,465.43,469.11,303,572.37,336.22,926.13,577.89,1017,602.35,1021.8,851.45,1027,872.38,1031Z"/><path class="cls-39" d="M872.42,1031.06q19.11-112.41,38.24-224.82c62-292.82-260.5-441.69-439.61-328.68C310.52,579.78,344.21,927.77,581,1016.7,606.09,1021.62,850.75,1026.94,872.42,1031.06Z"/><path class="cls-40" d="M872.46,1031.15l37.26-222.6C970.23,520.84,653.21,374.47,476.66,486,318,587.19,352.2,929.42,584.05,1016.39,609.83,1021.44,850.05,1026.88,872.46,1031.15Z"/><path class="cls-41" d="M872.5,1031.24q18.13-110.19,36.29-220.38c59-282.59-252.53-426.47-426.51-316.41C325.52,594.6,360.19,931.06,587.14,1016.09,613.58,1021.27,849.35,1026.83,872.5,1031.24Z"/><path class="cls-42" d="M872.54,1031.33l35.31-218.16C965.37,535.7,659.31,394.32,487.9,502.9,333,602,368.17,932.7,590.22,1015.78,617.32,1021.09,848.65,1026.77,872.54,1031.33Z"/><path class="cls-43" d="M872.58,1031.42q17.16-108,34.34-215.94c56-272.36-244.56-411.24-413.4-304.13-153,98.06-117.36,423,99.78,504.12C621.06,1020.91,848,1026.71,872.58,1031.42Z"/><path class="cls-44" d="M872.62,1031.51,906,817.8c54.54-267.25-240.57-403.64-406.85-298-151.12,97-115,416.19,97.25,495.36C624.81,1020.73,847.24,1026.65,872.62,1031.51Z"/><path class="cls-45" d="M872.66,1031.6q16.19-105.75,32.39-211.49c53.05-262.14-236.59-396-400.3-291.86-149.24,96-112.61,409.38,94.71,486.61C628.55,1020.55,846.54,1026.6,872.66,1031.6Z"/><path class="cls-46" d="M872.7,1031.69l31.41-209.27C955.67,565.4,671.51,434,510.37,536.7,363,631.64,400.13,939.27,602.55,1014.55,632.29,1020.38,845.84,1026.54,872.7,1031.69Z"/><path class="cls-47" d="M872.74,1031.78q15.21-103.53,30.44-207C953.25,572.82,674.56,443.93,516,545.15c-145.47,93.9-107.86,395.77,89.65,469.09C636,1020.2,845.14,1026.48,872.74,1031.78Z"/><path class="cls-48" d="M872.78,1031.87l29.46-204.82C950.82,580.25,677.61,453.86,521.6,553.6c-143.6,92.86-105.49,389,87.11,460.33C639.78,1020,844.44,1026.42,872.78,1031.87Z"/><path class="cls-49" d="M872.82,1032q14.23-101.31,28.48-202.6C948.39,587.67,680.66,463.78,527.22,562,385.5,653.86,424.1,944.2,611.79,1013.63,643.52,1019.84,843.74,1026.36,872.82,1032Z"/><path class="cls-50" d="M872.86,1032.05l27.51-200.38C946,595.1,683.71,473.7,532.84,570.49c-139.84,90.78-100.75,375.36,82,442.83C647.27,1019.66,843,1026.3,872.86,1032.05Z"/><path class="cls-51" d="M872.9,1032.14Q886.16,933.07,899.43,834c44.11-231.46-212.67-350.35-361-255C400.5,668.68,440.08,947.49,618,1013,651,1019.48,842.34,1026.25,872.9,1032.14Z"/><path class="cls-52" d="M872.94,1032.23,898.5,836.29C941.12,610,689.81,493.55,544.07,587.39c-136.08,88.7-96,361.74,77,425.31C654.75,1019.31,841.63,1026.19,872.94,1032.23Z"/><path class="cls-53" d="M873,1032.32q12.28-96.85,24.58-193.71c41.13-221.24-204.7-335.14-347.87-242.77-134.2,87.66-93.64,354.94,74.43,416.56C658.5,1019.13,840.93,1026.13,873,1032.32Z"/><path class="cls-54" d="M873,1032.41l23.61-191.49C936.26,624.8,695.91,513.4,555.3,604.29,423,690.91,464,952.42,627.21,1012.09,662.24,1019,840.23,1026.07,873,1032.41Z"/><path class="cls-55" d="M873.06,1032.5q11.31-94.63,22.63-189.27c38.15-211-196.73-319.91-334.77-230.5-130.43,85.59-88.89,341.33,69.37,399C666,1018.77,839.53,1026,873.06,1032.5Z"/><path class="cls-56" d="M873.1,1032.59l21.66-187C931.41,639.65,702,533.24,566.54,621.18,438,705.73,480,955.71,633.37,1011.47,669.73,1018.59,838.83,1026,873.1,1032.59Z"/><path class="cls-57" d="M873.14,1032.68q10.33-92.41,20.68-184.83C929,647.08,705.05,543.17,572.16,629.63c-126.68,83.5-84.15,327.72,64.29,381.54C673.47,1018.41,838.13,1025.9,873.14,1032.68Z"/><path class="cls-58" d="M873.18,1032.77l19.71-182.6C926.56,654.5,708.11,553.09,577.77,638.08,453,720.54,496,959,639.54,1010.86,677.22,1018.24,837.43,1025.84,873.18,1032.77Z"/><path class="cls-59" d="M873.22,1032.86q9.36-90.19,18.73-180.38c32.18-190.55-180.8-289.47-308.56-206-122.91,81.42-79.4,314.1,59.23,364C681,1018.06,836.73,1025.78,873.22,1032.86Z"/><path class="cls-60" d="M873.26,1033q8.88-89.09,17.75-178.16C921.71,669.35,714.2,572.94,589,655c-121,80.38-77,307.3,56.69,355.26C684.7,1017.88,836,1025.72,873.26,1033Z"/><path class="cls-61" d="M873.3,1033q8.38-88,16.78-175.94c29.2-180.32-172.83-274.24-295.45-193.67-119.16,79.34-74.66,300.49,54.15,346.5C688.45,1017.7,835.32,1025.67,873.3,1033Z"/><path class="cls-62" d="M873.34,1033.13q7.9-86.87,15.8-173.72C916.86,684.2,720.3,592.78,600.24,671.87,483,750.18,528,965.56,651.87,1009.63,692.19,1017.52,834.62,1025.61,873.34,1033.13Z"/><path class="cls-63" d="M873.38,1033.22q7.41-85.76,14.83-171.49c26.22-170.1-164.86-259-282.35-181.4-115.39,77.26-69.92,286.88,49.09,329C695.93,1017.35,833.92,1025.55,873.38,1033.22Z"/><path class="cls-64" d="M873.42,1033.31q6.93-84.64,13.85-169.27C912,699.05,726.4,612.63,611.48,688.77,498,765,543.93,968.85,658,1009,699.68,1017.17,833.22,1025.49,873.42,1033.31Z"/><path class="cls-65" d="M873.46,1033.4q6.43-83.52,12.88-167.05c23.24-159.87-156.89-243.8-269.25-169.13-111.63,75.18-65.17,273.27,44,311.48C703.42,1017,832.52,1025.43,873.46,1033.4Z"/><path class="cls-66" d="M873.5,1033.49q6-82.41,11.9-164.82c21.75-154.77-152.9-236.19-262.69-163C513,779.81,559.91,972.14,664.2,1008.4,707.16,1016.81,831.82,1025.37,873.5,1033.49Z"/><path class="cls-67" d="M873.54,1033.58Q879,952.28,884.47,871C904.73,721.33,735.55,642.4,628.33,714.12c-107.87,73.1-60.43,259.66,38.95,294C710.91,1016.63,831.12,1025.31,873.54,1033.58Z"/><path class="cls-68" d="M873.58,1033.67q5-80.19,9.95-160.38c18.77-144.54-144.93-221-249.59-150.72-106,72.06-58.05,252.85,36.42,285.21C714.65,1016.45,830.42,1025.26,873.58,1033.67Z"/><path class="cls-69" d="M873.62,1033.76q4.49-79.08,9-158.16c17.28-139.42-141-213.35-243-144.58-104.1,71-55.68,246.05,33.88,276.45C718.39,1016.28,829.72,1025.2,873.62,1033.76Z"/><path class="cls-70" d="M873.66,1033.85q4-78,8-155.94c15.79-134.3-137-205.74-236.48-138.44-102.23,70-53.31,239.24,31.35,267.69C722.14,1016.1,829,1025.14,873.66,1033.85Z"/><path class="cls-71" d="M873.7,1033.94l7-153.71C895,751,747.75,682.09,650.8,747.91c-100.35,69-50.95,232.44,28.81,259C725.88,1015.92,828.31,1025.08,873.7,1033.94Z"/><path class="cls-72" d="M873.74,1034q3-75.75,6-151.49C892.6,758.46,750.8,692,656.41,756.36,558,824.26,607.84,982,682.69,1006.55,729.62,1015.74,827.61,1025,873.74,1034Z"/><path class="cls-73" d="M873.78,1034.12l5.07-149.27c11.32-119-125-182.91-216.82-120-96.58,66.86-46.2,218.83,23.74,241.43C733.37,1015.56,826.91,1025,873.78,1034.12Z"/><path class="cls-74" d="M873.82,1034.21q2.05-73.53,4.1-147.05c9.83-113.85-121-175.3-210.27-113.9-94.71,65.82-43.83,212,21.21,232.67C737.11,1015.38,826.21,1024.91,873.82,1034.21Z"/><path class="cls-75" d="M873.86,1034.3,877,889.47c8.34-108.74-117-167.68-203.72-107.76-92.82,64.78-41.45,205.21,18.68,223.92C740.85,1015.21,825.51,1024.85,873.86,1034.3Z"/><path class="cls-76" d="M873.9,1034.39q1.08-71.31,2.15-142.6c6.85-103.63-113-160.08-197.17-101.63C587.94,853.9,639.8,988.57,695,1005.32,744.6,1015,824.81,1024.79,873.9,1034.39Z"/><path class="cls-77" d="M873.94,1034.48l1.17-140.38C880.47,795.58,766,741.64,684.5,798.61c-89.06,62.7-36.71,191.6,13.6,206.4C748.34,1014.85,824.11,1024.73,873.94,1034.48Z"/><path class="cls-78" d="M874,1034.57q.1-69.07.2-138.16C878,803,769.1,751.56,690.12,807.06c-87.19,61.66-34.34,184.79,11.07,197.64C752.08,1014.67,823.41,1024.68,874,1034.57Z"/><path class="cls-79" d="M874,1034.66l-.78-135.94c2.38-88.29-101.1-137.24-177.51-83.22-85.3,60.63-32,178,8.54,188.9C755.83,1014.49,822.7,1024.62,874,1034.66Z"/><path class="cls-80" d="M874.06,1034.75Q873.19,967.9,872.3,901c.89-83.17-97.11-129.62-170.95-77.08-83.42,59.58-29.6,171.19,6,180.14C759.57,1014.31,822,1024.56,874.06,1034.75Z"/><path class="cls-81" d="M874.1,1034.84l-2.73-131.49c-.6-78.07-93.13-122-164.4-71-81.54,58.54-27.23,164.38,3.46,171.38C763.31,1014.14,821.3,1024.5,874.1,1034.84Z"/><path class="cls-82" d="M870.09,1033l-3.7-129.27c-2.1-72.95-89.15-114.41-157.86-64.81-79.65,57.5-24.85,157.58.94,162.62Z"/></g><g id="Layer_3" data-name="Layer 3"><g id="Python" class="cls-83"><circle class="cls-84" cx="665" cy="525" r="118.49"/><path class="cls-85" d="M566.68,547.5V504.14H578.9a36.47,36.47,0,0,1,6.5.5,10,10,0,0,1,6.27,3.6,11.76,11.76,0,0,1,2.23,7.47q0,6.82-4.56,10.64t-12.64,3.81h-4.22V547.5Zm5.8-21.68h3.61q7.06,0,9.37-3.06a11.29,11.29,0,0,0,2.32-7,6.59,6.59,0,0,0-2.73-5.83,7.58,7.58,0,0,0-2.59-1.13,21.84,21.84,0,0,0-4.23-.3h-5.75Z"/><path class="cls-85" d="M600.34,559.07v-4.33h2.34c2.31,0,4-.43,5.07-1.29a6.73,6.73,0,0,0,1.51-1.71c.38-.64.82-1.5,1.33-2.59l1.42-3-13.35-30.43h6L615,539.54l10.48-23.86h5.16l-16,35.89a13.73,13.73,0,0,1-4.59,5.92,7.64,7.64,0,0,1-3.07,1.29,25.66,25.66,0,0,1-4.21.29Z"/><path class="cls-85" d="M664.59,547.5a50.07,50.07,0,0,1-8.38.73c-4.64,0-7.85-.85-9.6-2.55a7.1,7.1,0,0,1-2.06-3.76,28.38,28.38,0,0,1-.49-5.82V520.75h-7.94v-4.33h7.94v-6.86h5.8v6.86H664v4.33H649.86V537a14.9,14.9,0,0,0,.29,3.78,3.15,3.15,0,0,0,1,1.41,6.76,6.76,0,0,0,2.84,1.3,16.16,16.16,0,0,0,3.43.37,33.1,33.1,0,0,0,7.14-.79Z"/><path class="cls-85" d="M673.79,547.5V501.24h5.8v14.42l-.35,6h.35a14.06,14.06,0,0,1,4.79-5,11.47,11.47,0,0,1,6-1.73,8.56,8.56,0,0,1,7,3,7.74,7.74,0,0,1,1.62,3.27,20.4,20.4,0,0,1,.4,4.44V547.5h-5.77V527.29a20.69,20.69,0,0,0-.17-2.93,4.65,4.65,0,0,0-.77-2,3.94,3.94,0,0,0-1.75-1.46,6.06,6.06,0,0,0-2.34-.45,7.67,7.67,0,0,0-4.51,1.54,22.41,22.41,0,0,0-4.56,4.71V547.5Z"/><path class="cls-85" d="M722.67,548.23q-7.18,0-11.09-4.62c-2.59-3.07-3.89-7.09-3.89-12s1.3-9,3.89-12,6.3-4.6,11.09-4.6,8.5,1.54,11.1,4.6,3.89,7.08,3.89,12-1.3,9-3.89,12S727.47,548.23,722.67,548.23Zm0-4.33a7.53,7.53,0,0,0,6.51-3.27q2.33-3.27,2.33-9t-2.34-9a8.09,8.09,0,0,0-13,0q-2.34,3.27-2.34,9t2.33,9A7.53,7.53,0,0,0,722.67,543.9Z"/><path class="cls-85" d="M746.1,547.5V515.68h5.8l-.35,6h.35a14.12,14.12,0,0,1,4.78-5,11.5,11.5,0,0,1,6-1.73,8.53,8.53,0,0,1,7,3,7.88,7.88,0,0,1,1.63,3.27,21.12,21.12,0,0,1,.39,4.44V547.5H766V527.29a20.92,20.92,0,0,0-.16-2.93,4.79,4.79,0,0,0-.78-2,3.88,3.88,0,0,0-1.75-1.46,6,6,0,0,0-2.34-.45,7.62,7.62,0,0,0-4.5,1.54,22.41,22.41,0,0,0-4.56,4.71V547.5Z"/></g><g id="Perl" class="cls-83"><circle class="cls-86" cx="738.92" cy="235.32" r="135.74"/><path class="cls-87" d="M642.81,269.07V196.8h20.36a60,60,0,0,1,10.84.84,16.61,16.61,0,0,1,10.45,6q3.7,4.74,3.71,12.45,0,11.39-7.61,17.73t-21.06,6.34h-7v28.91Zm9.66-36.13h6q11.78,0,15.63-5.1a18.9,18.9,0,0,0,3.85-11.7q0-6.58-4.54-9.72a12.42,12.42,0,0,0-4.32-1.88A35.76,35.76,0,0,0,662,204h-9.57Z"/><path class="cls-87" d="M745.54,267c-1.69.55-3,1-3.81,1.22a52.26,52.26,0,0,1-7.3,1.59,51.45,51.45,0,0,1-7.25.51q-14.94,0-21.65-7.7t-6.72-19.47a30.4,30.4,0,0,1,6.86-20q6.87-8.31,18.19-8.31,9.61,0,15.48,5.85T745.2,242v3.08H709.07q.58,10.2,6.15,14.11a22.56,22.56,0,0,0,13.28,3.9,46.09,46.09,0,0,0,17-3.71Zm-36.18-29.15H735v-1.37q0-7.74-3.4-11.07a11.73,11.73,0,0,0-8.57-3.33,12,12,0,0,0-9.23,4.09Q710,230.24,709.36,237.82Z"/><path class="cls-87" d="M767.22,269.07V216h9.67L776.3,226h.59a27.71,27.71,0,0,1,8-8.09,21,21,0,0,1,11.72-3.05,46.11,46.11,0,0,1,9.8,1.22v15h-7.23v-7.57a19.44,19.44,0,0,0-4-.48,17.57,17.57,0,0,0-9.48,2.86,32.53,32.53,0,0,0-8.74,8.62v34.56Z"/><path class="cls-87" d="M841.34,269.07V199.2H820.88V192H851v77.1Z"/></g><g id="PHP" class="cls-83"><circle class="cls-88" cx="270.21" cy="362.07" r="146.99"/><path class="cls-89" d="M175.57,399.56V312.85H200a73.23,73.23,0,0,1,13,1,20,20,0,0,1,12.54,7.21Q230,326.73,230,336q0,13.65-9.12,21.27t-25.28,7.62h-8.43v34.68Zm11.6-43.36h7.21q14.12,0,18.75-6.12a22.68,22.68,0,0,0,4.63-14q0-7.92-5.45-11.66a14.82,14.82,0,0,0-5.19-2.26,42.66,42.66,0,0,0-8.46-.61H187.17Z"/><path class="cls-89" d="M243.19,399.56V312.85h11.6V349.7h31.76V312.85h11.6v86.71h-11.6V358.37H254.79v41.19Z"/><path class="cls-89" d="M320.18,399.56V312.85h24.43a73.23,73.23,0,0,1,13,1,20,20,0,0,1,12.54,7.21q4.45,5.68,4.45,14.94,0,13.65-9.13,21.27t-25.27,7.62h-8.43v34.68Zm11.6-43.36H339q14.11,0,18.75-6.12a22.68,22.68,0,0,0,4.63-14q0-7.92-5.45-11.66a14.82,14.82,0,0,0-5.19-2.26,42.66,42.66,0,0,0-8.46-.61H331.78Z"/></g><g id="Java" class="cls-83"><circle class="cls-85" cx="768.93" cy="395.81" r="111.74"/><path class="cls-84" d="M683.61,418.68v-5.87l2.32.77a26.12,26.12,0,0,0,7.58,1.58,11.52,11.52,0,0,0,4.63-.88,6.38,6.38,0,0,0,3.17-3.07q1.14-2.2,1.14-7.69V372.24H686.88V367h22.54v32.8q0,9.89-2.1,13.56a12.51,12.51,0,0,1-5.57,5.32,17.75,17.75,0,0,1-7.7,1.65A43.4,43.4,0,0,1,683.61,418.68Z"/><path class="cls-84" d="M749.42,414.46a23.49,23.49,0,0,1-6.54,4.11,16.52,16.52,0,0,1-6,1.16,12.83,12.83,0,0,1-8.54-2.93,9.5,9.5,0,0,1-3.48-7.61q0-5.78,5.18-9.48T744,396h4.29v-3.28a12.67,12.67,0,0,0-.4-3.6,4.61,4.61,0,0,0-1.43-2.18,6.36,6.36,0,0,0-2.68-1.38,14.32,14.32,0,0,0-3.22-.35,26.81,26.81,0,0,0-5.49.63,27.77,27.77,0,0,0-7,2.75v-5.95a47.69,47.69,0,0,1,7.54-2.12A37.77,37.77,0,0,1,742,380q7.56,0,10.59,3.27a8.86,8.86,0,0,1,2.19,4.06,25.26,25.26,0,0,1,.51,5.51v16c0,1.32,0,2.3.11,3a3.3,3.3,0,0,0,.67,1.72,2.87,2.87,0,0,0,1.12.94,3.78,3.78,0,0,0,1.62.33,11.42,11.42,0,0,0,2.18-.35l.63,4.15a18.5,18.5,0,0,1-5.27,1.12,8.56,8.56,0,0,1-3.94-.93C751.19,418.18,750.2,416.73,749.42,414.46Zm-1.09-4.5v-9.63h-2.07q-7.38,0-10.81,2.09a6.34,6.34,0,0,0-3.43,5.64,6.18,6.18,0,0,0,1.67,4.29,6.44,6.44,0,0,0,5,1.83,11.53,11.53,0,0,0,4.69-1.06A20.81,20.81,0,0,0,748.33,410Z"/><path class="cls-84" d="M781.45,419.06l-15.82-38.18h7.15l12.69,30.63,13-30.63h6.14l-16.24,38.18Z"/><path class="cls-84" d="M836.19,414.46a23.64,23.64,0,0,1-6.54,4.11,16.56,16.56,0,0,1-6,1.16,12.86,12.86,0,0,1-8.55-2.93,9.5,9.5,0,0,1-3.48-7.61q0-5.78,5.19-9.48t14-3.71h4.29v-3.28a12.61,12.61,0,0,0-.41-3.6,4.59,4.59,0,0,0-1.42-2.18,6.4,6.4,0,0,0-2.69-1.38,14.25,14.25,0,0,0-3.22-.35,26.72,26.72,0,0,0-5.48.63,27.77,27.77,0,0,0-7,2.75v-5.95a47.4,47.4,0,0,1,7.54-2.12,37.68,37.68,0,0,1,6.31-.51q7.56,0,10.58,3.27a8.78,8.78,0,0,1,2.2,4.06,25.26,25.26,0,0,1,.51,5.51v16a27.25,27.25,0,0,0,.11,3,3.38,3.38,0,0,0,.66,1.72,2.9,2.9,0,0,0,1.13.94,3.78,3.78,0,0,0,1.62.33,11.23,11.23,0,0,0,2.17-.35l.64,4.15a18.62,18.62,0,0,1-5.28,1.12,8.55,8.55,0,0,1-3.93-.93Q837.35,417.87,836.19,414.46ZM835.1,410v-9.63H833q-7.38,0-10.81,2.09a6.35,6.35,0,0,0-3.42,5.64,6.13,6.13,0,0,0,1.67,4.29,6.44,6.44,0,0,0,5,1.83,11.57,11.57,0,0,0,4.69-1.06A21.21,21.21,0,0,0,835.1,410Z"/></g><g id="JavaScript" class="cls-90"><circle class="cls-91" cx="529.54" cy="364.09" r="137.24"/><path class="cls-92" d="M414.34,376.61v-3.42l1.35.45a15.31,15.31,0,0,0,4.42.92,6.77,6.77,0,0,0,2.7-.51,3.71,3.71,0,0,0,1.85-1.8,10.45,10.45,0,0,0,.67-4.48V349.52h-9.09v-3h13.15v19.13q0,5.76-1.22,7.91a7.35,7.35,0,0,1-3.25,3.1,10.22,10.22,0,0,1-4.49,1A25,25,0,0,1,414.34,376.61Z"/><path class="cls-92" d="M452.73,374.15a13.78,13.78,0,0,1-3.82,2.4,9.71,9.71,0,0,1-3.5.68,7.5,7.5,0,0,1-5-1.71,5.57,5.57,0,0,1-2-4.44,6.53,6.53,0,0,1,3-5.53,13.79,13.79,0,0,1,8.17-2.17h2.5v-1.91a7.72,7.72,0,0,0-.23-2.1,2.79,2.79,0,0,0-.83-1.27,3.75,3.75,0,0,0-1.57-.81,8.6,8.6,0,0,0-1.88-.2,15.27,15.27,0,0,0-3.2.37,16.31,16.31,0,0,0-4.06,1.6v-3.47a27.14,27.14,0,0,1,4.4-1.24,21.85,21.85,0,0,1,3.68-.3q4.41,0,6.17,1.91a5.14,5.14,0,0,1,1.29,2.37,15.33,15.33,0,0,1,.29,3.22v9.34c0,.76,0,1.34.06,1.72a2,2,0,0,0,.39,1,1.75,1.75,0,0,0,.66.54,2.16,2.16,0,0,0,.94.2,6.2,6.2,0,0,0,1.27-.21l.37,2.42a10.78,10.78,0,0,1-3.07.66,4.91,4.91,0,0,1-2.3-.55A4.16,4.16,0,0,1,452.73,374.15Zm-.64-2.62v-5.62h-1.21c-2.87,0-5,.4-6.3,1.22a3.69,3.69,0,0,0-2,3.29,3.57,3.57,0,0,0,1,2.5,3.76,3.76,0,0,0,2.92,1.07,6.83,6.83,0,0,0,2.74-.62A12,12,0,0,0,452.09,371.53Z"/><path class="cls-92" d="M471.41,376.84l-9.23-22.27h4.17l7.41,17.86,7.6-17.86H485l-9.48,22.27Z"/><path class="cls-92" d="M503.34,374.15a13.89,13.89,0,0,1-3.81,2.4,9.81,9.81,0,0,1-3.51.68,7.46,7.46,0,0,1-5-1.71,5.54,5.54,0,0,1-2-4.44,6.52,6.52,0,0,1,3-5.53,13.81,13.81,0,0,1,8.17-2.17h2.5v-1.91a7.34,7.34,0,0,0-.23-2.1,2.79,2.79,0,0,0-.83-1.27,3.75,3.75,0,0,0-1.57-.81,8.6,8.6,0,0,0-1.88-.2,15.35,15.35,0,0,0-3.2.37,16.31,16.31,0,0,0-4.06,1.6v-3.47a27.43,27.43,0,0,1,4.4-1.24,21.85,21.85,0,0,1,3.68-.3q4.41,0,6.18,1.91a5.21,5.21,0,0,1,1.28,2.37,14.62,14.62,0,0,1,.3,3.22v9.34c0,.76,0,1.34.06,1.72a2,2,0,0,0,.39,1,1.64,1.64,0,0,0,.65.54,2.21,2.21,0,0,0,.95.2,6.3,6.3,0,0,0,1.27-.21l.37,2.42a10.83,10.83,0,0,1-3.08.66,4.91,4.91,0,0,1-2.3-.55A4.16,4.16,0,0,1,503.34,374.15Zm-.64-2.62v-5.62h-1.21c-2.87,0-5,.4-6.3,1.22a3.71,3.71,0,0,0-2,3.29,3.57,3.57,0,0,0,1,2.5,3.79,3.79,0,0,0,2.93,1.07,6.78,6.78,0,0,0,2.73-.62A12,12,0,0,0,502.7,371.53Z"/><path class="cls-92" d="M514.89,376.14v-4a23,23,0,0,0,9.16,2.42,8.1,8.1,0,0,0,3.23-.64,4.92,4.92,0,0,0,2.3-1.92,5,5,0,0,0,.79-2.71q0-2.91-3.61-4.8l-5.89-3.07a12.52,12.52,0,0,1-4.51-3.53,7.34,7.34,0,0,1-1.27-4.27,7.82,7.82,0,0,1,2.22-5.52q2.21-2.37,7-2.37a30.06,30.06,0,0,1,7.92,1.23v3.5a22.58,22.58,0,0,0-7.92-1.7,8.2,8.2,0,0,0-2.9.48,3.7,3.7,0,0,0-1.92,1.52,4.19,4.19,0,0,0-.63,2.21,4.13,4.13,0,0,0,.88,2.54,9,9,0,0,0,3.18,2.36l5.49,2.85a12.63,12.63,0,0,1,4.76,3.65,7.44,7.44,0,0,1,1.25,4.26,8.32,8.32,0,0,1-2.79,6.39c-1.86,1.72-4.54,2.58-8.06,2.58a26.61,26.61,0,0,1-3-.2A45.91,45.91,0,0,1,514.89,376.14Z"/><path class="cls-92" d="M559.43,376.12a21.9,21.9,0,0,1-7.15,1.23q-6.09,0-9.1-3.17a13.39,13.39,0,0,1,0-16.93c2-2.13,4.92-3.2,8.72-3.2a24.88,24.88,0,0,1,7.11,1.07v3.39a20.49,20.49,0,0,0-6.74-1.42,7.25,7.25,0,0,0-5.74,2.32,9.14,9.14,0,0,0-2.06,6.28,8.69,8.69,0,0,0,2.23,6.34,8.18,8.18,0,0,0,6.12,2.29,18.94,18.94,0,0,0,6.6-1.38Z"/><path class="cls-92" d="M568.45,376.84V354.57h4.06l-.24,4.16h.24a11.65,11.65,0,0,1,3.35-3.39,8.76,8.76,0,0,1,4.92-1.29,18.76,18.76,0,0,1,4.12.52v6.31h-3V357.7a8.56,8.56,0,0,0-1.7-.2,7.37,7.37,0,0,0-4,1.2,13.77,13.77,0,0,0-3.68,3.62v14.52Z"/><path class="cls-92" d="M599.07,376.84V357.6H591v-3h12.14v22.27Zm-.51-27.32v-5.06h5.06v5.06Z"/><path class="cls-92" d="M616.4,384.94V354.57h4.06l-.25,4.16h.25a11.09,11.09,0,0,1,3.29-3.51,7.18,7.18,0,0,1,4-1.17,7,7,0,0,1,6,3,13.13,13.13,0,0,1,2.17,7.92,14.45,14.45,0,0,1-2.5,8.87,8.73,8.73,0,0,1-3.07,2.63,8.26,8.26,0,0,1-6.84.3,8.13,8.13,0,0,1-3-2.43h-.25l.25,3v7.59Zm4.06-13.66a11.57,11.57,0,0,0,2.79,2.28,5.77,5.77,0,0,0,2.74.76,5,5,0,0,0,3.91-2q1.68-2,1.68-6.9c0-2.87-.45-4.9-1.33-6.09a4,4,0,0,0-3.36-1.79,6.26,6.26,0,0,0-3.11,1,11.22,11.22,0,0,0-3.32,3.27Z"/><path class="cls-92" d="M660.66,376.84a35.48,35.48,0,0,1-5.87.51c-3.25,0-5.5-.59-6.73-1.78a5,5,0,0,1-1.43-2.64,19.86,19.86,0,0,1-.35-4.07V358.11h-5.56v-3h5.56v-4.8h4.06v4.8h9.86v3h-9.86v11.41a9.9,9.9,0,0,0,.21,2.64,2.2,2.2,0,0,0,.71,1,4.86,4.86,0,0,0,2,.91,11.24,11.24,0,0,0,2.4.26,23,23,0,0,0,5-.56Z"/></g><g id="ASP" class="cls-83"><circle class="cls-87" cx="537.18" cy="185.07" r="106.49"/><path class="cls-86" d="M467.21,213.57l22.24-65h8.65l22.24,65h-9.15l-6.29-18.41h-24l-6.29,18.41Zm16-24.91h19.51l-9.75-28.55Z"/><path class="cls-86" d="M528.12,212.08v-8.57q11.42,5.19,19.64,5.18a17.41,17.41,0,0,0,6.92-1.38,10.34,10.34,0,0,0,4.92-4.11,10.81,10.81,0,0,0,1.7-5.8q0-6.24-7.74-10.28L541,180.53c-4.63-2.44-7.85-4.95-9.67-7.56a15.58,15.58,0,0,1-2.72-9.14A16.84,16.84,0,0,1,533.3,152q4.76-5.07,15-5.07a64.4,64.4,0,0,1,17,2.63v7.52q-9.48-3.65-17-3.65a17.79,17.79,0,0,0-6.22,1A7.92,7.92,0,0,0,538,157.7a8.83,8.83,0,0,0,.53,10.17q1.85,2.5,6.81,5L557.12,179q7.51,3.87,10.2,7.82A16,16,0,0,1,570,196a17.88,17.88,0,0,1-6,13.69q-6,5.52-17.27,5.52a56.64,56.64,0,0,1-6.5-.42A98.58,98.58,0,0,1,528.12,212.08Z"/><path class="cls-86" d="M585.16,213.57v-65h18.32a54.48,54.48,0,0,1,9.76.75,14.91,14.91,0,0,1,9.4,5.41Q626,159,626,165.89q0,10.25-6.84,16t-19,5.72h-6.32v26Zm8.7-32.52h5.4q10.61,0,14.07-4.59a17,17,0,0,0,3.47-10.52q0-5.94-4.09-8.75a11.13,11.13,0,0,0-3.89-1.69,31.8,31.8,0,0,0-6.35-.46h-8.61Z"/></g><g id="_.NET" data-name=".NET" class="cls-83"><circle class="cls-89" cx="364.94" cy="184.42" r="99.75"/><path class="cls-92" d="M277.93,215.55V204h11.56v11.56Z"/><path class="cls-92" d="M313.59,215.55V157.74h7.3l23,44,.07,0V157.74h6.29v57.81h-7.11L320,171.28l-.12,0v44.24Z"/><path class="cls-92" d="M364.45,215.55V157.74h33.87v5.78H372.19v18.55h22.14v5.79H372.19v21.91h27.93v5.78Z"/><path class="cls-92" d="M424.45,215.55v-52H405.19v-5.78h46.25v5.78H432.19v52Z"/></g><g id="Ruby" class="cls-83"><circle class="cls-93" cx="387.2" cy="515.06" r="133.49"/><path class="cls-91" d="M294.67,540.56v-52h12.61c4.87,0,8.38.45,10.53,1.37a10.54,10.54,0,0,1,5.08,4.51,13.17,13.17,0,0,1,1.84,6.77,16.91,16.91,0,0,1-2.12,7.84q-2.12,4.08-8.31,7.24l16.18,24.3H322.1L307.87,518.3h-6.24v22.26Zm7-27.46h3.65q6,0,9.05-3.39a11.51,11.51,0,0,0,3.05-8,8.46,8.46,0,0,0-1-4.21,6.64,6.64,0,0,0-3.17-2.8q-2.18-1-7.33-1h-4.25Z"/><path class="cls-91" d="M368.57,502.38v38.18h-7l.42-7.14h-.42a17,17,0,0,1-5.77,6,14,14,0,0,1-7.25,2.05,10.21,10.21,0,0,1-8.39-3.66,9.41,9.41,0,0,1-1.95-3.94,24.67,24.67,0,0,1-.47-5.34V502.38h6.92V526.6a27.44,27.44,0,0,0,.19,3.55,5.5,5.5,0,0,0,.93,2.39,4.81,4.81,0,0,0,2.11,1.76,7,7,0,0,0,2.81.56,9.14,9.14,0,0,0,5.4-1.86,27,27,0,0,0,5.47-5.66v-25Z"/><path class="cls-91" d="M381,541V485.05h7v17.3l-.42,7.16H388a19.22,19.22,0,0,1,5.64-6,12.43,12.43,0,0,1,6.84-2,12,12,0,0,1,10.26,5.1q3.73,5.1,3.73,13.58,0,9.47-4.29,15.2a15,15,0,0,1-5.27,4.51,14.18,14.18,0,0,1-6.47,1.55,13.94,13.94,0,0,1-5.27-1,13.72,13.72,0,0,1-5.17-4.17h-.42l-1.3,4.75Zm7-10a19.7,19.7,0,0,0,4.8,3.91,9.65,9.65,0,0,0,4.69,1.3,8.56,8.56,0,0,0,6.72-3.48q2.88-3.5,2.88-11.83,0-7.39-2.29-10.45A6.93,6.93,0,0,0,399,507.4a10.84,10.84,0,0,0-5.35,1.73,19.09,19.09,0,0,0-5.69,5.6Z"/><path class="cls-91" d="M423.37,554.44v-5.2h2.81q4.15,0,6.09-1.54a8.16,8.16,0,0,0,1.81-2.06c.45-.76,1-1.79,1.6-3.1l1.7-3.65-16-36.51h7.17L441,531l12.58-28.62h6.19l-19.21,43.06a16.49,16.49,0,0,1-5.51,7.11,9,9,0,0,1-3.69,1.54,29.35,29.35,0,0,1-5.05.35Z"/></g></g><g id="Person"><g id="Person-2" data-name="Person"><path class="cls-94" d="M673.89,977.05c14.85,1.27,25.25,2,37.3,3.83s14.53,5.58,21.59,10.85,10.37,3.93,17.61,5.14,11.25,9,23.34,14.08,21.12,5.66,18.25,10.08-10.75,4.2-15.16,2.39.24,4.19,4.54,9.41,8.09,15.29-1.78,13.51-8.58-9.93-22-18.61c-3-1.91-11.27-10.09-15.76-12.31s-8.15-1.44-13.75-.88-14.22-.14-7.84,3,12.87,8.69,6.83,13.15-21.8-1.91-32.31-4.54-31.46-.49-48.46-14.65S656.62,973.53,673.89,977.05Z"/><path class="cls-94" d="M682.81,977.47C653.37,977,654,960,564.22,1049.78c-2,2-4,4-6,6.12h58.86c12.87-27.42,24.31-42.35,47.89-34.69C699.65,1032.5,715.86,981.54,682.81,977.47Z"/><path class="cls-95" d="M676.66,954.5c14.88-.85,25.27-1.65,37.46-1.5s15.18,3.47,22.91,7.69,10.83,2.43,18.17,2.59,12.42,7.36,25.1,10.64,21.71,2.61,19.49,7.4-10,5.68-14.67,4.51.83,4.11,5.82,8.68,10.18,14,.16,13.62-9.9-8.62-24.38-15.32c-3.19-1.47-12.58-8.39-17.34-9.95s-8.27-.27-13.73,1.07-14.1,1.88-7.35,4,14,6.78,8.63,12.06-21.86,1.19-32.64.08-31.2,4-50-7.65S659.07,953.46,676.66,954.5Z"/><path class="cls-95" d="M685.55,953.65c-29.21,3.67-31-13.18-107.16,88.37-3.32,4.42-6.71,9.1-10,13.88h58.81c10.65-38.3,18.46-61.37,46.91-56.42C710,1005.74,718.84,953,685.55,953.65Z"/><path class="cls-95" d="M664.56,706.58A117.32,117.32,0,0,0,651.13,761c0,18.55,8.37,23.67-1,28.9s-17.74,1.29-20.39,6,.07,6-5.19,8-8.16.47-8.16.47,2.19,5.81-.14,8.49-8.78,2.62-10.41,7.32-2.73,20.92-17.15,19.83S515.21,791.72,515,765.22c-.1-12.9-48.14-3.46-53.5-84.71C454.73,578.24,528,540.67,570,582.24c107.8,22.17,149.25,80.07,111.39,129.7C683.24,698.63,673.57,689.33,664.56,706.58Z"/><path class="cls-95" d="M460,706.25c7.09,40.52,7.56,70.81-22.28,126.82-4.91,9.22-56.08,64.63-54.56,72.55,7.71,40.21,137.28,62.19,130.43-8.69C505.4,812.46,552,795.83,576.16,786S470.63,640,460,706.25Z"/><path class="cls-95" d="M570.45,588.29c-9.8-53.19-96.66-79.37-134.76-13.24-20.38,35.35-18,74-7.59,101.33-3.37-18.68,1.93-32.88,5.36-26.46,6.48,12.12-4.09,42.72,5.5,65.57-.87-14.7,1.43-24.88,6.13-21,5.72,4.74,1.57,30.39,9.38,43.94C452.44,682.4,543.18,627,570.45,588.29Z"/><path class="cls-95" d="M421.55,833.94c-19.59,24.66-76.15,83.92-91.79,222H543.11c-.82-72.55-26.86-84.18-17.27-162.07C465.12,883,442.57,871.58,421.55,833.94Z"/></g><g id="Computer"><path class="cls-95" d="M882.32,1044.57H641.48v5a6.4,6.4,0,0,0,6.38,6.38H875.94a6.4,6.4,0,0,0,6.38-6.38Z"/><path class="cls-95" d="M935.7,809.7,879.91,1044l4.82,1.15a6.4,6.4,0,0,0,7.68-4.73l52.83-221.88a6.38,6.38,0,0,0-4.73-7.68Z"/></g></g><g id="Layer_12" data-name="Layer 12"><path class="cls-96" d="M690.42,762.73l-1.69-17.29,14.86,9-2.06,1.3-10.22-6.22,1.17,11.89Z"/><path class="cls-96" d="M693.1,765.78l2.21-1.38a15.14,15.14,0,0,0,1.85,5.68,4.91,4.91,0,0,0,2.28,2.14,2.22,2.22,0,0,0,2,0,1.67,1.67,0,0,0,.75-1.06,6,6,0,0,0-.28-2.46l-.79-3.16a6.07,6.07,0,0,1-.07-3.07,3.58,3.58,0,0,1,1.65-2.19,4,4,0,0,1,3.6-.43,7.33,7.33,0,0,1,3.57,3.31c.33.53.66,1.11,1,1.73a23.77,23.77,0,0,1,1.2,3l-2,1.25a18.66,18.66,0,0,0-2-4.88,4.68,4.68,0,0,0-1.87-1.85,1.76,1.76,0,0,0-1.77,0,1.44,1.44,0,0,0-.65.92,4.53,4.53,0,0,0,.16,1.93l.86,3.77a6.35,6.35,0,0,1,.07,3.46,4,4,0,0,1-1.65,1.94,4.41,4.41,0,0,1-3.88.38,7.8,7.8,0,0,1-3.95-3.56A19,19,0,0,1,693.1,765.78Z"/><path class="cls-96" d="M709.72,792.52a15.37,15.37,0,0,1-3.46-3.86Q704,785,704.73,782A9.57,9.57,0,0,1,715,775.53a8.16,8.16,0,0,1,5.24,4.06,17.67,17.67,0,0,1,2.06,4.71l-2,1.29a14.8,14.8,0,0,0-1.7-4.62,5.17,5.17,0,0,0-3.58-2.59,6.46,6.46,0,0,0-4.59,1.14,6.19,6.19,0,0,0-3,3.75,5.81,5.81,0,0,0,.94,4.58,13.57,13.57,0,0,0,3.33,3.46Z"/><path class="cls-96" d="M712.71,798.25l13.47-8.45,1.55,2.46-2.62,1.43.1.15a8.27,8.27,0,0,1,3.32.73,6.4,6.4,0,0,1,2.65,2.5,14,14,0,0,1,1.25,2.68l-3.82,2.4-1.16-1.84,1.93-1.21a6,6,0,0,0-.52-1.1,5.28,5.28,0,0,0-2.24-2,9.82,9.82,0,0,0-3.59-.85l-8.78,5.51Z"/><path class="cls-96" d="M724.33,816.78l11.64-7.3-3.07-4.89,1.84-1.15,4.61,7.34-13.48,8.46Zm16.33-10.68,3.07-1.92,1.92,3.06-3.06,1.92Z"/><path class="cls-96" d="M726,830.34l18.38-11.53,1.54,2.46-2.62,1.43.1.15a8,8,0,0,1,3.37.65,5.22,5.22,0,0,1,2.22,2,5,5,0,0,1,.47,4.75,9.4,9.4,0,0,1-4,4.32,10.27,10.27,0,0,1-6.32,1.85,6.18,6.18,0,0,1-2.75-.86,5.83,5.83,0,0,1-2.78-4,5.73,5.73,0,0,1,.33-2.75l-.1-.15-1.74,1.31-4.59,2.88Zm9.81-2.73a7.86,7.86,0,0,0-.32,2.56,3.92,3.92,0,0,0,.58,1.94,3.51,3.51,0,0,0,2.71,1.59c1.24.16,2.85-.37,4.81-1.6a7.55,7.55,0,0,0,3.19-3.12,2.9,2.9,0,0,0-.2-2.71,4.51,4.51,0,0,0-1.79-1.5,7.87,7.87,0,0,0-3.23-.77Z"/><path class="cls-96" d="M747.71,854a24.85,24.85,0,0,1-2.54-3.35q-1.84-3-1.47-4.75a3.57,3.57,0,0,1,1-1.87,13.89,13.89,0,0,1,2.33-1.75l6.5-4.08-2.11-3.37,1.84-1.15,2.11,3.36,2.9-1.82,1.54,2.46-2.9,1.82,3.74,6-1.83,1.15-3.75-6-6.9,4.33a7.54,7.54,0,0,0-1.52,1.13,1.53,1.53,0,0,0-.32.81,3.41,3.41,0,0,0,.2,1.55,7.67,7.67,0,0,0,.76,1.55,16.2,16.2,0,0,0,2.23,2.81Z"/><path class="cls-96" d="M762.58,848.48l1.66,17.31-14.84-9,2.07-1.3,10.2,6.23-1.16-11.9Z"/><path class="cls-96" d="M767.27,885.23l-1.68-17.3,14.85,9-2.06,1.3L768.17,872l1.16,11.89Z"/><path class="cls-96" d="M796.57,888.4l-30.42,3.19-1.29-2.05,30.43-3.18Z"/><path class="cls-96" d="M779.25,903.39l2.42-1.52a16.45,16.45,0,0,0,2,6.46,5.77,5.77,0,0,0,1.62,1.71,3.39,3.39,0,0,0,2,.66,3.61,3.61,0,0,0,1.94-.54c1.17-.74,1.68-2.08,1.53-4l-.37-4.73a8.77,8.77,0,0,1,.42-4.07A5.18,5.18,0,0,1,793,895a5.55,5.55,0,0,1,4.18-.75c1.52.29,2.88,1.4,4.1,3.34a21.75,21.75,0,0,1,2.26,5.26l-2.12,1.33a16.21,16.21,0,0,0-2-5.44,5.79,5.79,0,0,0-1.39-1.57,2.65,2.65,0,0,0-1.65-.59,2.94,2.94,0,0,0-1.57.46,2.88,2.88,0,0,0-1.21,1.5,6.63,6.63,0,0,0-.22,2.81l.36,4.41a9.08,9.08,0,0,1-.4,4.27,5.32,5.32,0,0,1-2.1,2.37,6,6,0,0,1-4.93.74,8.2,8.2,0,0,1-4.62-3.9,20.43,20.43,0,0,1-1-1.91A32.94,32.94,0,0,1,779.25,903.39Z"/><path class="cls-96" d="M796.18,930.33a15.37,15.37,0,0,1-3.46-3.86q-2.31-3.68-1.54-6.71a9.59,9.59,0,0,1,10.25-6.42,8.16,8.16,0,0,1,5.24,4.06,17.67,17.67,0,0,1,2.06,4.71l-2.05,1.29a14.8,14.8,0,0,0-1.7-4.62,5.17,5.17,0,0,0-3.59-2.59,6.45,6.45,0,0,0-4.58,1.14,6.15,6.15,0,0,0-3,3.75,5.85,5.85,0,0,0,.93,4.58,13.8,13.8,0,0,0,3.34,3.46Z"/><path class="cls-96" d="M799.17,936.06l13.47-8.45,1.54,2.46-2.61,1.43.1.15a8.27,8.27,0,0,1,3.32.73,6.32,6.32,0,0,1,2.64,2.5,13.44,13.44,0,0,1,1.26,2.68l-3.83,2.4-1.15-1.84,1.93-1.21a5.37,5.37,0,0,0-.53-1.1,5.19,5.19,0,0,0-2.23-1.95,9.82,9.82,0,0,0-3.59-.85l-8.78,5.51Z"/><path class="cls-96" d="M810.79,954.59l11.64-7.3-3.07-4.89,1.84-1.15,4.61,7.34-13.48,8.46Zm16.33-10.68,3.07-1.92,1.92,3.06L829.05,947Z"/><path class="cls-96" d="M812.47,968.15l18.37-11.53,1.54,2.46-2.61,1.43.1.15a8,8,0,0,1,3.37.65,5.16,5.16,0,0,1,2.22,2,5,5,0,0,1,.46,4.75,9.35,9.35,0,0,1-4,4.32,10.23,10.23,0,0,1-6.31,1.85,6.26,6.26,0,0,1-2.76-.86,5.87,5.87,0,0,1-2-1.93,5.78,5.78,0,0,1-.8-2.09,5.61,5.61,0,0,1,.33-2.75l-.1-.15-1.74,1.31L814,970.61Zm9.8-2.73A8.11,8.11,0,0,0,822,968a4,4,0,0,0,.57,1.94,3.55,3.55,0,0,0,2.72,1.59c1.24.16,2.85-.37,4.81-1.6a7.45,7.45,0,0,0,3.18-3.12,2.87,2.87,0,0,0-.19-2.71,4.51,4.51,0,0,0-1.79-1.5,7.87,7.87,0,0,0-3.23-.77Z"/><path class="cls-96" d="M834.17,991.85a24.85,24.85,0,0,1-2.54-3.35c-1.23-2-1.73-3.55-1.47-4.75a3.57,3.57,0,0,1,1.05-1.87,14,14,0,0,1,2.33-1.76l6.5-4.07-2.11-3.37,1.84-1.15,2.11,3.36,2.9-1.82,1.54,2.46-2.9,1.82,3.74,6-1.83,1.15-3.75-6-6.9,4.33a7.16,7.16,0,0,0-1.52,1.13,1.53,1.53,0,0,0-.32.81,3.41,3.41,0,0,0,.2,1.55,8.18,8.18,0,0,0,.75,1.55,16.75,16.75,0,0,0,2.24,2.81Z"/><path class="cls-96" d="M849,986.29l1.66,17.31-14.84-9,2.06-1.3,10.2,6.23L847,987.59Z"/><text class="cls-97" transform="translate(621.17 875.08) rotate(22.98)">{code}</text><path class="cls-96" d="M844.23,788l38.44-1.07.35,12.65-3,.08-.25-9.1-32.37.9.25,9.1-3,.09Z"/><path class="cls-96" d="M852.09,826.59a22.11,22.11,0,0,1-1.43-7.11q-.17-6.08,2.92-9.18a13.38,13.38,0,0,1,16.93-.46q3.27,2.92,3.43,8.62a24.5,24.5,0,0,1-.87,7.14l-3.38.09a20.63,20.63,0,0,0,1.23-6.77,7.3,7.3,0,0,0-2.48-5.68,9.15,9.15,0,0,0-6.34-1.88,8.65,8.65,0,0,0-6.27,2.41,8.18,8.18,0,0,0-2.12,6.18,19.32,19.32,0,0,0,1.56,6.56Z"/><path class="cls-96" d="M851.29,842a9.58,9.58,0,0,1,3-7.85,14.38,14.38,0,0,1,16.84-.47,9.63,9.63,0,0,1,3.44,7.67q.13,5-3,7.86a14.38,14.38,0,0,1-16.83.46Q851.43,847,851.29,842Zm3-.08a5.28,5.28,0,0,0,2.42,4.49,13.07,13.07,0,0,0,12.64-.36,5.66,5.66,0,0,0-.25-9.09,13.09,13.09,0,0,0-12.65.34A5.3,5.3,0,0,0,854.32,841.89Z"/><path class="cls-96" d="M852.65,872.64l4.17.13v-.25a11.27,11.27,0,0,1-3.6-3.2,7.26,7.26,0,0,1-1.28-4,7,7,0,0,1,2.81-6,13.18,13.18,0,0,1,7.88-2.39,14.55,14.55,0,0,1,8.93,2.25,8.75,8.75,0,0,1,2.7,3,8.34,8.34,0,0,1,.5,6.82,7.86,7.86,0,0,1-2.37,3.09v.24l3-.33,9.6-.26.12,4.06-32.37.9Zm16.71-.47a11.65,11.65,0,0,0,2.2-2.85,5.63,5.63,0,0,0,.68-2.76,5,5,0,0,0-2.12-3.84q-2.05-1.63-7-1.5c-2.86.08-4.88.58-6,1.5a4,4,0,0,0-1.69,3.41,6.17,6.17,0,0,0,1.1,3.08,11.38,11.38,0,0,0,3.34,3.23Z"/><path class="cls-96" d="M854.36,902.4c-.25-.71-.43-1.23-.55-1.59a23.7,23.7,0,0,1-.76-3,22,22,0,0,1-.3-3q-.16-6.27,3-9.18a12,12,0,0,1,8.1-3,12.74,12.74,0,0,1,8.47,2.65,9.38,9.38,0,0,1,3.7,7.54,8.76,8.76,0,0,1-2.27,6.56q-2.38,2.54-8.87,2.71l-1.3,0-.42-15.17q-4.27.36-5.85,2.75a9.44,9.44,0,0,0-1.49,5.62,19.46,19.46,0,0,0,1.76,7.11Zm11.82-15.53.3,10.74.57,0q3.26-.09,4.61-1.55a4.93,4.93,0,0,0,1.3-3.64,5,5,0,0,0-1.83-3.82A8.14,8.14,0,0,0,866.18,886.87Z"/><path class="cls-96" d="M886.38,920.51l-38.44,1.06-.35-12.64,3-.09.26,9.1,32.37-.9-.26-9.1,3-.08Z"/><text class="cls-97" transform="translate(769.73 746.04) rotate(73.22)">{code}</text></g></svg>