<svg id="Layer_1" data-name="Layer 1" xmlns="http://www.w3.org/2000/svg" xmlns:xlink="http://www.w3.org/1999/xlink" viewBox="0 0 500 500"><defs><style>.cls-1{fill:#0172b1;}.cls-2{fill:url(#linear-gradient);}.cls-3{fill:#fff;}</style><linearGradient id="linear-gradient" x1="412.39" y1="88.87" x2="77.69" y2="419.15" gradientUnits="userSpaceOnUse"><stop offset="0"/><stop offset="1" stop-opacity="0"/></linearGradient></defs><path class="cls-1" d="M447.15,500.1a49.89,49.89,0,0,0,49.82-50v-400A49.9,49.9,0,0,0,447.15.1H52.64a49.9,49.9,0,0,0-49.82,50v400a49.89,49.89,0,0,0,49.82,50Z"/><path class="cls-2" d="M162.75,164.54c3.6-3.62,7.58-7.06,9.95-11.67a28.94,28.94,0,0,0,2.82-17.33c-2.51-17.11-22.23-27.74-38.31-23.24-10,2.78-17.15,10.72-24.2,17.81-9.12,9.19-18.14,18.48-27.31,27.62-18.15,18.08-36.53,35.92-54.7,54q-14.12,14-28.18,28.14V450.12a49.89,49.89,0,0,0,49.82,50h200.7l2.86-2.88c18.15-18.17,36.11-36.54,54.12-54.86,8.9-9.05,17.85-18.06,26.93-26.94s18.51-16.85,27.57-25.49c7.52-7.17,14.31-15.19,17.19-25.39,3.28-11.61,1.71-24,1.21-35.89-1-24.14,3.45-48.13,0-72.22-2.62-18.33-9.52-36-22.49-49.48-11.6-12.06-27.52-20.51-44.51-20.51a70.27,70.27,0,0,0-32.64,7.8c-9.76,5.14-17.64,13-25.09,21q-1-9.6-1.88-19.22c-.4-4.29-5.45-5.71-9.06-5.58-13.67.47-27.36.09-41,.09l.18,4h-4.15l.18,4h-4.15c.06,1.32.12,2.65.17,4H194.6c.06,1.32.12,2.65.17,4h-4.15l.18,4h-4.15l.18,4h-4.15l.18,4h-4.15l.18,4h-4.15c.06,1.32.11,2.65.17,4-2.58.63-1.23-7.16-1.11-8.38.37-4-.06-8.05.35-12.06s1.69-8.08.38-12c-1.74-5.21-8.21-3.38-12.29-3.26-8.47.26-16.94-.06-25.41-.06C145.17,181.6,154.12,173.23,162.75,164.54Z"/><path class="cls-3" d="M145.86,111.19c-18.34,0-30.32,12.36-30.32,28.45,0,15.73,11.6,28.46,29.58,28.46,19.09,0,30.69-12.73,30.69-28.46C175.44,123.55,164.21,111.19,145.86,111.19Z"/><rect class="cls-3" x="117.04" y="190.56" width="56.91" height="183.09"/><path class="cls-3" d="M381.73,373.65V265.45c0-53.91-28.07-79-65.52-79-30.7,0-49,17.6-56.53,29.59h-1.13l-2.62-25.47H206.51C207.26,207,208,226.13,208,249V373.65h56.91V268.07c0-5.24.37-10.49,1.87-14.23,4.12-10.48,13.48-21.34,29.2-21.34,20.6,0,28.84,16.1,28.84,39.69V373.65Z"/></svg>