<svg id="Layer_1" data-name="Layer 1" xmlns="http://www.w3.org/2000/svg" viewBox="0 0 1300 1000"><defs><style>.cls-1{fill:#fff;}.cls-2{fill:#71cfeb;}.cls-3{fill:#3c464f;}.cls-4{fill:#ff0019;}.cls-4,.cls-5{fill-opacity:1;}.cls-6{fill:#7d2b42;}.cls-7{fill:#ffbaac;}.cls-8{fill:#451825;}.cls-9{fill:#ff0b00;fill-opacity:0.18;}.cls-10{fill:#ff0009;fill-opacity:0.17;}.cls-11{fill-opacity:0.55;}</style></defs><g id="layer1"><path class="cls-1" d="M592.89,269.08Z"/><path d="M638.42,794.52H336.76v-489H638.43Zm-174.3,49.65a24.12,24.12,0,1,1,24.12,24.37,24.23,24.23,0,0,1-24.12-24.37m194.54,22.1h.05v-586h0v-.12h0A24.32,24.32,0,0,0,634.38,256H340.81a24.33,24.33,0,0,0-24.3,24.21h0V866.27h0c0,.25,0,.5,0,.77,0,13.11,11,23.74,24.61,23.74l.6,0v0h293a23.88,23.88,0,0,0,24-23.74C658.71,866.78,658.67,866.52,658.66,866.27Z"/><path class="cls-2" d="M638.43,305.56v489H336.76v-489Z"/><path class="cls-3" d="M488.24,819.83a24.36,24.36,0,1,1-24.12,24.34A24.22,24.22,0,0,1,488.24,819.83Z"/><path class="cls-1" d="M413.16,302.48h0a2.95,2.95,0,1,1-5.89.34h0a2.95,2.95,0,1,1,5.89-.34Z"/><path class="cls-4" d="M300.69,252.9H669.32v172H300.68Q300.68,338.92,300.69,252.9Z"/><path class="cls-1" d="M337.77,296.21H295V421.8a2.67,2.67,0,0,0,2.67,2.67H335.1a2.68,2.68,0,0,0,2.67-2.67Z"/><path class="cls-1" d="M423.28,296.21H380.52V421.8a2.68,2.68,0,0,0,2.68,2.67h37.4a2.67,2.67,0,0,0,2.68-2.67Z"/><path class="cls-1" d="M508.78,296.21H466V421.8a2.67,2.67,0,0,0,2.67,2.67h37.41a2.66,2.66,0,0,0,2.67-2.67Z"/><path class="cls-1" d="M594.29,296.21H551.54V421.8a2.66,2.66,0,0,0,2.67,2.67h37.41a2.67,2.67,0,0,0,2.67-2.67Z"/><path class="cls-1" d="M679.8,296.21H637V421.8a2.67,2.67,0,0,0,2.68,2.67h37.4a2.67,2.67,0,0,0,2.68-2.67Z"/><path class="cls-5" d="M716.28,876.61h0Z"/><path d="M860.66,701.46l-16.43,1h0L843.15,716h0L859,715h0l1.69-13.59Zm-20.26,1.2-23.57,1.41h0l-.13,13.43,22.62-1.31h0l1.08-13.53h0ZM813,704.29l-26.67,1.59.12,13.38h0l26.42-1.54h0l.13-13.44Zm-30.47,1.81-27.28,1.63h0L756.34,721h0l26.34-1.54h0l-.12-13.38h0ZM751.49,708,719,709.88h0L721.58,723h0l31-1.81h0L751.49,708h0Zm-36.27,2.16-26.35,1.57h0l2.89,13.09h0l26-1.51h0l-2.53-13.15Zm143.27,8.76-15.65.91h0l-1,11.89h0l15.13-1h0l1.47-11.79ZM839,720l-22.36,1.3h0l-.11,12.05h0l21.51-1.43h0L839,720Zm-26.16,1.52-26.35,1.54h0l.11,12.29h0l26.13-1.74h0l.11-12.09h0Zm-30.14,1.76-26.07,1.52h0l1,12.48h0l25.19-1.68h0l-.11-12.32ZM752.86,725l-30.56,1.77h0l2.44,12.67h0l29.11-1.94h0l-1-12.51Zm-34.38,2-25.89,1.5h0l2.84,12.9h0l25.5-1.7h0L718.48,727Zm138.06,7.47-15,1h0L840.35,751h0l14.26-1h0l1.93-15.51Zm-18.78,1.25-21.25,1.42h0l-.14,15.37h0l20.15-1.33h0l1.24-15.46Zm-25,1.67-26.05,1.74h0l.14,15.34h0l25.77-1.71h0l.14-15.37Zm-29.84,2-24.93,1.66h0l1.22,15.26h0L783,754.74h0l-.13-15.34Zm-28.71,1.91-28.69,1.92h0l2.91,15.13h0l27-1.79h0l-1.21-15.26Zm-32.51,2.17-25.39,1.69h0l3.33,15.09h0l25-1.65h0l-2.92-15.13Zm132.49,10.36-14.1.93h0l-1.73,21.63h0l13.1-.66h0l2.73-21.9ZM836.22,755l-19.89,1.32h0l-.2,21.18h0l18.36-.93h0L836.22,755Zm-23.69,1.57-25.7,1.7h0L787,779h0l25.31-1.28h0l.2-21.12ZM783,758.54l-23.58,1.56h0l1.61,20.2h0l22.16-1.12h0L783,758.54Zm-27.37,1.81-26.56,1.76h0l3.78,19.62h0l24.39-1.24h0l-1.61-20.14Zm-30.38,2L700.42,764h0l4.22,19.14h0l24.42-1.23h0l-3.77-19.56Zm125.64,17.2-12.92.65h0l-1.09,13.6h0l11.82-.63h.11a2.32,2.32,0,0,1,.38.05h0l1.7-13.67Zm-16.75.85-18.09.91h0l-.13,13.6h0l17.14-.9h0l1.08-13.61Zm-21.89,1.1-25.24,1.28h0l.13,13.66h0l25-1.33h0l.13-13.62Zm-29,1.47-21.89,1.11h0l1.09,13.66h0l20.92-1.1h0L783.26,783Zm-25.68,1.3-24,1.21h0l2.64,13.65h0L758.67,798h0l-1.09-13.68Zm-27.79,1.4-24.32,1.23h0l3,13.7h0l23.93-1.27h0l-2.63-13.66Zm3.35,17.43-23.82,1.26h0l2.22,10.07,23.59-1h0l-2-10.32ZM759,801.74l-22,1.16h0l2,10.37h0l20.85-.89h0L759,801.74Zm24.45-1.29-20.66,1.09h0l.86,10.68h0l19.9-.85h0l-.1-10.92Zm28.71-1.52-24.92,1.32h0l.1,11h0L812,810.15h0l.11-11.22Zm20.66-1.1-16.86.9h0L815.82,810h0l16-.68h0l.92-11.48Zm16-.84-12.15.64h0l-.92,11.51h0l11.62-.49L848.76,797Zm69-167.18.84,4.38-44.23,27.06-18.69,152a4.38,4.38,0,0,1-4.25,4h-.22l-138.08,6h0q-1.53,21.43.29,27,1.29,5.88,6.22,7.45,4.86,2.07,24,1.91l102.78-2.4a4.36,4.36,0,0,1,0,8.68l-15.53.36h0a10.51,10.51,0,0,1-6.75,17.94H824a10.52,10.52,0,0,1-8.51-17.41l.15-.17h0q-34.92.84-57.73,1.49-6.55.15-11.55.19h0a10.52,10.52,0,0,1-6.87,17.81h-.11a10.52,10.52,0,0,1-8.51-17.41c.17-.19.34-.37.52-.55h0q-10.74-.48-15-2.35-10.38-3.71-12.1-16.8-1.36-8.07.23-27.29h0a5.64,5.64,0,0,1-.74-1.66L679.21,708.28a4.32,4.32,0,0,1,.1-2.17,4.36,4.36,0,0,1,4.06-3.07c2.39.26,3.82,1.32,4.3,3.2l.37,1.68h0l173.1-10.29h0l5-40.47a4.38,4.38,0,0,1,1.91-2.44l44.64-29.52,1.13.65-.24,1.9Z"/><path d="M1004.64,857.49a1,1,0,0,1,.42.09.38.38,0,0,1,.19.22h-.11l-1.72-.1a6,6,0,0,1,1.19-.21m.65.31,26.63,1.5q1.56,8.67,1.22,11.69a12.79,12.79,0,0,1-2.67,6.76q-33.32,2.26-45.17,2.3-13.71.15-15.69-1.76-2.48-2.22,4.76-5.8a17.85,17.85,0,0,1,3.91-1.32c.56-.11,1.13-.2,1.71-.26,2.65-.21,4.14-.36,4.49-.44a23,23,0,0,0,3.38-.8,53.86,53.86,0,0,0,10.25-4.52q6.93-4,7.18-7.34Z"/><path class="cls-6" d="M998.52,590.49l3.59,10.77q-6.2,9.57-11.09,13.17-5.52,4.3-10.54.58a18.39,18.39,0,0,1-5.31-6.36q-2.16-4.24-1.49-6.64a3.75,3.75,0,0,1,2.65-2.37,14.37,14.37,0,0,1,2-.52q5.82-.82,6.51-1.08a21.67,21.67,0,0,0,4.22-1.5,52.14,52.14,0,0,0,9.39-6Z"/><path d="M997.83,451.57a33.31,33.31,0,0,1,15.38,4.52,14.83,14.83,0,0,1,6.53,9.59q1.38,5.35.41,15.8l-10.59,18.91q-17.89-9.31-24-14.2-6.84-5.12-8-10.57a14.76,14.76,0,0,1,.07-6.83c1.42-5.23,2.54-8.09,3.34-8.57a34.21,34.21,0,0,1,8.85-7,15.74,15.74,0,0,1,8-1.69Z"/><path class="cls-7" d="M1005.55,465.87c.82-.08,1.81.39,3,1.43,1.61,1.4,2.41,2.48,2.4,3.25q.63,1.41-.64,17.25l2-.3q.39-6.4,2.26-7.93c1.47-1,3.22-.8,5.26.52a4.32,4.32,0,0,1,.78,2.25q.33,8.94.51,9.63a30.83,30.83,0,0,0,1.23,6q1.82,5.7,7.44,13.21l-3.83,20.76q-12.5,13-18.09,12.5-4.2,0-5.08-3.77a12.64,12.64,0,0,1-.09-3.65q-.09-.25,1.29-8.54a23.48,23.48,0,0,0,.22-3.2,18,18,0,0,0-1.72-7.23c-3.39.91-5.87.7-7.46-.64a49,49,0,0,1-9.64-11.12,15.67,15.67,0,0,1-2-4.47,8.33,8.33,0,0,1-.2-1.5,18.11,18.11,0,0,0-.08-4,5.54,5.54,0,0,0-.33-1.1,20.34,20.34,0,0,1-1.8-4.22,26.59,26.59,0,0,1-.43-5.32,13.16,13.16,0,0,1-1.12-5c0-5.47.68-8.51,2-9.11a2.5,2.5,0,0,1,1.15-.3,26,26,0,0,0,6.82-.17q10.68-4.75,16.19-5.23Z"/><path class="cls-7" d="M986.54,571.38l12.34,17.53q-4.26,6.12-8.28,8.7T976.34,604l10.87,11.88q-15.84,7.46-24,9.39a49.49,49.49,0,0,1-7.64,1.31l-14.15.83a19.67,19.67,0,0,0-4.56,1,13.78,13.78,0,0,0-4.21,2.57,66.24,66.24,0,0,0-5.94,6.25,17.6,17.6,0,0,1-2.35,2,14.6,14.6,0,0,1-6.57,2.37c-3.4.29-5.37-.08-5.9-1.09a13.52,13.52,0,0,0-.93-1.71l4.92-3.05a5,5,0,0,0,1.12-2,4.14,4.14,0,0,0-2.16-4.6,6.23,6.23,0,0,0-4.56-.27,13.81,13.81,0,0,0-2.85,1.13l-4.6,2.72c-.71.32-1.19.28-1.44-.1q-.69-5.21,4.1-10.82a15.65,15.65,0,0,1,4.35-3.07,90.11,90.11,0,0,1,8.91-3.52,15.6,15.6,0,0,0,2.61-1.39,15,15,0,0,0,1.82-1.42c2.72-2.88,4.4-4.49,5-4.81q8.9-5.7,11.25-7.4l21.22-15.41q5.85-4.17,9.91-6.7,9.6-6,15.85-6.7Z"/><path class="cls-6" d="M1031.89,506.18l1,6q15.64,7.33,22.85,16.91a40.12,40.12,0,0,1,7.85,18.27q2.37,13.71-.31,34-1.32,9.95-3.61,20.12-1.65,7.72-5.94,21.73a21.35,21.35,0,0,0-.71,3.89,13.52,13.52,0,0,0,.19,3.77,38.52,38.52,0,0,1,2.56,10.74l-56,4.12a14.76,14.76,0,0,0,.17-4.19q-2.52-4-3.32-12.4-.45-2.16-2.2-34.78a58.46,58.46,0,0,0-1-8q-.33-4.8-9.56-15l11.25-11q-2.31-15.93-1.75-20.41a9.54,9.54,0,0,1,1.27-4.3q.41-1,3.43-3.11a2.25,2.25,0,0,0,.55-1c.31-.93.1-2.47-.61-4.64l5.94-3.64.27,1q15-12.63,27.55-18.11Z"/><path class="cls-8" d="M1042.9,633.11l11.54.3q7.23,11.12,7.44,22.71a49,49,0,0,1-2.45,16.52,71.45,71.45,0,0,1-2.73,6.94q-8.1,16.78-8.51,18.24a57,57,0,0,0-3.27,10.44,56.35,56.35,0,0,0,.91,25.17,128.73,128.73,0,0,0,7.82,21.44q8.73,18.93,16.13,34.15l9.76,18.18q5.65,12.34,16.75,39.32l-28.42,5.64q-1.11-12.58-7.79-26.63-6.33-13.81-27.74-49.67l1,86.3-32.11-1a117.58,117.58,0,0,0,4.58-33.57q0-6.71-1-16.77l-5-47q-.95-11-1.24-20.39-.4-12-.11-26l1.66-50.35q.14-11.43-.68-25.88,7-8.5,43.22-8.15Z"/><path d="M1052.27,554.1q-2.57,7.85-14.94,16.35-10.42,7.31-42,23.82l56.87-40.14Z"/><path class="cls-6" d="M994.31,595.49q2.4,11,.92,15.18a6.69,6.69,0,0,1-2.56,3.3,17.61,17.61,0,0,1-5.42,2.21l7.06-20.67Z"/><path class="cls-9" d="M1014.47,506.55l-4.17,13.25-6,4.38-1.82-6.31a76.34,76.34,0,0,0,7.5-5.81,27.51,27.51,0,0,0,4.47-5.49Z"/><path class="cls-6" d="M1025.89,505.51c.53.88,1.11,1.78,1.74,2.71q2.11-1.1,4.17-2l.09-.05,1,6q15.64,7.33,22.85,16.91a40.12,40.12,0,0,1,7.85,18.27q2.37,13.71-.31,34-1.32,9.95-3.61,20.12-1.65,7.72-5.94,21.73a21.35,21.35,0,0,0-.71,3.89,13.52,13.52,0,0,0,.19,3.77c.31.89.6,1.74.86,2.56h.33q7.23,11.12,7.44,22.71a49,49,0,0,1-2.45,16.52,71.45,71.45,0,0,1-2.73,6.94l-.55,1.15h0a63.64,63.64,0,0,0-2.91,6.06h0q-4.74,9.93-5,11a57,57,0,0,0-3.27,10.44,56.35,56.35,0,0,0,.91,25.17,128.73,128.73,0,0,0,7.82,21.44q8.73,18.93,16.13,34.15l9.76,18.18q5.65,12.34,16.75,39.32l-1.62.32h0l1.08,3.2h0l-.11.2q-48.63-76.43-56.3-131.74h0l-5.78,47.16c-.26,2.09-.66,5.49-1.22,10.2l1,86.3-1,0h0c0,.24.07.48.11.71-1.36-.28-2.82-.59-4.37-.94q-.45-28.93.91-53.79.95-75.83,26.92-142.46Q1045.55,629,1055,566.7l-4-37-25.88-24.14h0l.69,0Z"/><path class="cls-10" d="M914.33,641.18q6.67-3.75,8.26-5.48a4.73,4.73,0,0,0,1.14-1.76l.09-3.7a4.75,4.75,0,0,1,.72-1.82q1.37-2.1,5.45-4.43,10.26-5.85,47.14-18.57l-44.84,19.45c-3.3,2.45-5.38,4.27-6.24,5.48a5,5,0,0,0-.86,1.66,21.86,21.86,0,0,1-.41,3.19,4.57,4.57,0,0,1-1.12,1.62,26.86,26.86,0,0,1-9.22,4.36Z"/><path class="cls-1" d="M479.46,516.32a9,9,0,0,1,1.23,2.07,15.41,15.41,0,0,1,.78,2.35q.27,1.2.45,2.46c.11.84.22,1.67.34,2.48.11,1.77.23,3.55.37,5.32s.23,3.54.34,5.31h-5.58c-1.82,0-3.65,0-5.49-.07.36-1.77.73-3.53,1.09-5.28s.77-3.47,1.3-5.24a45.93,45.93,0,0,1,2-5A14.87,14.87,0,0,1,479.46,516.32Zm0-7.84a7.07,7.07,0,0,0-3.33,1.23,12.07,12.07,0,0,0-2.59,2.42,20.11,20.11,0,0,0-2,3.1c-.59,1.11-1.14,2.15-1.64,3.13-1,2.36-1.93,4.75-2.72,7.15s-1.56,4.78-2.29,7.19-1.47,5-2.11,7.56a40.44,40.44,0,0,0-1.09,7.63,17.8,17.8,0,0,0,.1,1.81,6.87,6.87,0,0,0,.38,1.73,3,3,0,0,0,1.26,1.27,5.69,5.69,0,0,0,1.74.54,2.11,2.11,0,0,0,1.26-.44,4.15,4.15,0,0,0,.88-1,12,12,0,0,0,.62-1.3l.51-1.26c.29-1,.62-2,1-3s.7-2,1-3c1-.18,2-.32,3-.41s1.94-.1,2.89-.1a5.83,5.83,0,0,1,.59,0,6.3,6.3,0,0,1,1.15.1,10.41,10.41,0,0,0,1.26.07h.44c.55,0,1.09,0,1.65,0s1.1,0,1.66,0c.06,1.14.17,2.29.3,3.44a23.65,23.65,0,0,1,.1,3.48,3.37,3.37,0,0,0,.41,1.46,3.87,3.87,0,0,0,1,1.16,3.08,3.08,0,0,0,1.29.68,2.64,2.64,0,0,0,.74.1,3.11,3.11,0,0,0,.79-.1,2.79,2.79,0,0,0,1.4-.48,4.12,4.12,0,0,0,1-1,4.77,4.77,0,0,0,.72-1.29,8.8,8.8,0,0,0,.41-1.4,8.12,8.12,0,0,0,.13-2.08,11.16,11.16,0,0,0-.24-2,18.56,18.56,0,0,0-.51-1.94c-.2-.64-.41-1.27-.61-1.91a56.34,56.34,0,0,1-1-6.06q-.31-3.08-.55-6.13c-.2-2.12-.41-4.21-.61-6.27a42.47,42.47,0,0,0-1.06-6.13,18.67,18.67,0,0,0-.92-2.73,9.74,9.74,0,0,0-1.43-2.52,7.41,7.41,0,0,0-2.07-1.87A5.33,5.33,0,0,0,479.46,508.48Zm71.15.15c-.75,0-1.49,0-2.24.06a45.56,45.56,0,0,0-6.61.81l-2,.58a16.81,16.81,0,0,0-2,.75A8.3,8.3,0,0,0,536,512a4.79,4.79,0,0,0-1.26,1.63q-1.12,4.13-2.11,8.24c-.64,2.82-1.24,5.62-1.81,8.42a66.65,66.65,0,0,0-1.09,8.45c0,1.56,0,3.13,0,4.7a21.27,21.27,0,0,0,.71,4.59c.16.66.34,1.32.55,2a7.21,7.21,0,0,0,.81,1.87,3.69,3.69,0,0,0,1.54,1.2,5.8,5.8,0,0,0,1.94.47,15.52,15.52,0,0,0,3.51-.47,27.64,27.64,0,0,0,3.44-1.13c1.13-.43,2.26-.91,3.37-1.43l3.27-1.57c1-.56,2.08-1.11,3.17-1.63s2.16-1.09,3.2-1.7a22,22,0,0,0,3-2,11.46,11.46,0,0,0,2.35-2.56v-.17a3.51,3.51,0,0,0-1.7-1.84,4.32,4.32,0,0,0-2-.5,4,4,0,0,0-.49,0,14.21,14.21,0,0,0-2.42.4c-.79.21-1.59.46-2.38.75a24.9,24.9,0,0,0-2.32,1c-.75.36-1.5.73-2.25,1.12q-2.17,1.18-4.49,2.28a20.44,20.44,0,0,1-4.74,1.57c-.27-1.27-.49-2.54-.65-3.82a18.32,18.32,0,0,1-.06-3.85,8.38,8.38,0,0,1,.47-2.55,9.58,9.58,0,0,1,1.23-2.35,8.36,8.36,0,0,1,1.84-1.87,7.63,7.63,0,0,1,2.38-1.16q2.52-.48,5-.75l5-.51a13.33,13.33,0,0,0,1.7-.28,7.49,7.49,0,0,0,1.74-.61,4.45,4.45,0,0,0,1.36-1.09,2.72,2.72,0,0,0,.61-1.63,2.44,2.44,0,0,0-.13-1.4,2.71,2.71,0,0,0-.75-1.06,3.62,3.62,0,0,0-1.19-.61,3.57,3.57,0,0,0-1.11-.17h-.85a18.8,18.8,0,0,0-3.26.28q-1.93.32-3.81.72c-1.32.23-2.62.48-3.92.75a23.76,23.76,0,0,1-3.88.44,3.81,3.81,0,0,0-.07-.75,2.13,2.13,0,0,1,.07-.75,11.74,11.74,0,0,1,.2-1.26,10.26,10.26,0,0,1,.28-1.22,5.19,5.19,0,0,1,1.6-2.66,8.25,8.25,0,0,1,2.62-1.7,16.48,16.48,0,0,1,3.07-.86,15.12,15.12,0,0,1,2.52-.21h.64c.75,0,1.51.08,2.29.1l2.31,0a3.3,3.3,0,0,0,1-.17,3.7,3.7,0,0,0,1-.51,2.61,2.61,0,0,0,.68-.79,2.37,2.37,0,0,0,.3-1.05,2.85,2.85,0,0,0-.2-1.4,3,3,0,0,0-.75-1.09,3.89,3.89,0,0,0-1.12-.71,4.77,4.77,0,0,0-1.37-.28C553.28,508.69,551.94,508.63,550.61,508.63Zm-43.95.56a4.64,4.64,0,0,0-.63,0,3.53,3.53,0,0,0-1.43.65,4.49,4.49,0,0,0-1.05,1.16,5.58,5.58,0,0,0-.69,1.46,7.8,7.8,0,0,0-.3,1.53c-.16,1.12-.29,2.22-.38,3.31s-.16,2.16-.2,3.27-.08,2.29-.1,3.4-.09,2.25-.21,3.41c-.18,1.34-.37,2.67-.58,4s-.43,2.6-.68,3.91-.44,2.57-.58,3.82-.25,2.52-.34,3.81c0,.5,0,1,0,1.5s0,.94.06,1.4a17.22,17.22,0,0,0,.21,2.69,10.48,10.48,0,0,0,.71,2.55,4.62,4.62,0,0,0,2.05,1.91,8,8,0,0,0,2.72.75,15.76,15.76,0,0,0,1.68.09,15.42,15.42,0,0,0,3.91-.5,32.86,32.86,0,0,0,5.41-1.91q1.2-.57,2.49-1.26a17.39,17.39,0,0,0,2.45-1.49,11.6,11.6,0,0,0,2-1.95,6.64,6.64,0,0,0,1.3-2.45,2.16,2.16,0,0,0,.07-1.39,2.25,2.25,0,0,0-.72-1,2.88,2.88,0,0,0-1.16-.58,3.08,3.08,0,0,0-.61-.06,3.47,3.47,0,0,0-.78.1,7.49,7.49,0,0,0-2,.71c-.64.34-1.27.65-1.91.92l-2.08,1c-.65.34-1.33.67-2,1-1.16.46-2.33.85-3.51,1.2a11.09,11.09,0,0,1-3.14.45h-.43a11.19,11.19,0,0,1-.41-3.51c0-1.18.1-2.37.17-3.58q.27-2.93.71-5.82t1-5.79c.38-1.91.76-3.81,1.12-5.69s.65-3.79.85-5.72a23.33,23.33,0,0,0,.17-2.42,8,8,0,0,0-.3-2.49,4,4,0,0,0-1.16-1.84A2.49,2.49,0,0,0,506.66,509.19Zm-63.06-.68a18.83,18.83,0,0,0-5.15.72,17.56,17.56,0,0,0-5,2.32,15,15,0,0,0-2.25,1.63,15.23,15.23,0,0,0-1.87,2.05,12.58,12.58,0,0,0-1.4,2.35,10.18,10.18,0,0,0-.75,2.59,39.34,39.34,0,0,0-.27,5.07,14,14,0,0,0,.92,4.84,7.7,7.7,0,0,0,2.79,4.15,7.58,7.58,0,0,0,2.22,1.16,6.39,6.39,0,0,0,2,.3,5.63,5.63,0,0,0,.58,0h.44a9.25,9.25,0,0,0,2.56-.35c1-.25,2-.52,3-.81s2-.62,3-.89a12,12,0,0,1,3-.37h.16a1.88,1.88,0,0,1,1.37.58,2.51,2.51,0,0,1,.78,1.44,16.09,16.09,0,0,1,0,3.67,7.16,7.16,0,0,1-.92,3.61,8.92,8.92,0,0,1-2.35,2.8,10.29,10.29,0,0,1-3.27,1.74,9.14,9.14,0,0,1-2.62.39c-.33,0-.66,0-1-.05a14.73,14.73,0,0,1-3-.31,15.31,15.31,0,0,1-2.73-.78,9.78,9.78,0,0,1-1.49-.89c-.48-.32-1-.61-1.5-.89a7.12,7.12,0,0,0-1.47-.71,13.81,13.81,0,0,0-1.6-.38l-.23,0a1.33,1.33,0,0,0-.52.13,2,2,0,0,0-.61.47,2.47,2.47,0,0,0-.38.72,2.12,2.12,0,0,0-.06.75,4.64,4.64,0,0,0,.47,2.11,6.7,6.7,0,0,0,1.19,1.7,11.19,11.19,0,0,0,1.67,1.37c.62.4,1.23.77,1.84,1.09a19.33,19.33,0,0,0,4.12,1.7,18.2,18.2,0,0,0,4.43.61H440a11.8,11.8,0,0,0,2.81-.34,13.22,13.22,0,0,0,3-1,16.88,16.88,0,0,0,2.69-1.67,16.25,16.25,0,0,0,2.32-2.15,20.49,20.49,0,0,0,3.37-5.28,21,21,0,0,0,1.64-6,15.22,15.22,0,0,0-.21-4.26,10.68,10.68,0,0,0-1.53-3.81,8.67,8.67,0,0,0-3-3,7.46,7.46,0,0,0-4.09-1.16,13.41,13.41,0,0,0-2.83.44,18.62,18.62,0,0,0-2.69.95c-.8.3-1.59.63-2.38,1a7.18,7.18,0,0,1-2.49.58,2.31,2.31,0,0,1-.95-.2,3.3,3.3,0,0,1-.75-.51,6.09,6.09,0,0,1-.65-.69q-.27-.37-.51-.75a16.82,16.82,0,0,1-.65-1.8,5.37,5.37,0,0,1-.17-1.84,7,7,0,0,1,1.12-3.1,8.71,8.71,0,0,1,2.39-2.45,10.19,10.19,0,0,1,2.89-1.6,9.15,9.15,0,0,1,3.21-.58,5.79,5.79,0,0,1,2.07.37c.66.23,1.32.45,2,.65l2,.75a7.91,7.91,0,0,0,2.08.41,3.68,3.68,0,0,0,.49,0l.57,0a3.32,3.32,0,0,0,1.09-.24,1.85,1.85,0,0,0,.85-.58,1.45,1.45,0,0,0,.34-1,4.36,4.36,0,0,0-1-3.1,8.33,8.33,0,0,0-2.59-2,9.41,9.41,0,0,0-3.14-1.16,24.62,24.62,0,0,0-3.44-.37Z"/><path class="cls-11" d="M1239.57,885.55l-5,1.26q-35.46,3.81-207.46,6.09-173.19,2.28-407.89,1.85-224-.6-358.29-3.52-43-.94-70.89-2.06L166.65,888q-19.31-1.18-19.51-2.47,5.85-3.94,160-6.56t386.23-2.72q232.11.11,386.24,2.72T1239.57,885.55Z"/><path d="M1093.17,842.51q4.63,13.28,5.93,18.21,1,3.28,0,4.21a6.11,6.11,0,0,1-2.72,1.35q-7.82,2.25-13,3.62-11.65,3.12-19.25,4.37a80.24,80.24,0,0,1-21,1q-9.83-1.17-7.34-4a13.86,13.86,0,0,1,4.11-2.49l11.89-5,4.23-1.93a42.32,42.32,0,0,0,6.39-3.83q7.14-5.22,6.9-11.64l23.79-3.93Z"/><path class="cls-1" d="M406.08,469.37h165.8a2.86,2.86,0,0,1,2.86,2.87h0V594a2.87,2.87,0,0,1-2.86,2.87H406.08a2.83,2.83,0,0,1-2-.84,2.87,2.87,0,0,1-.84-2h0V472.23a2.87,2.87,0,0,1,2.86-2.86h0m0,5.73,2.87-2.87V594l-2.87-2.87h165.8L569,594V472.24l2.87,2.86Z"/></g></svg>