<?xml version='1.0' encoding='utf-8'?>
<svg xmlns="http://www.w3.org/2000/svg" width="40px" height="40px" viewBox="0 0 40 40" version="1.1"> <g id="surface1"> <path style=" stroke:none;fill-rule:nonzero;fill:rgb(90.980392%,90.980392%,90.980392%);fill-opacity:1;" d="M 29 0 L 4.332031 0 L 4.332031 40 L 35.667969 40 L 35.667969 6.664062 Z M 29 0 "/> <path style=" stroke:none;fill-rule:nonzero;fill:rgb(98.431373%,20.392157%,28.627451%);fill-opacity:1;" d="M 30.347656 19.78125 C 29.867188 18.925781 28.203125 18.65625 27.441406 18.535156 C 26.84375 18.4375 26.230469 18.410156 25.621094 18.410156 C 25.144531 18.40625 24.675781 18.429688 24.210938 18.457031 C 24.039062 18.46875 23.871094 18.484375 23.703125 18.5 C 23.527344 18.320312 23.359375 18.132812 23.199219 17.945312 C 22.167969 16.722656 21.332031 15.335938 20.65625 13.898438 C 20.835938 13.203125 20.980469 12.476562 21.066406 11.722656 C 21.226562 10.347656 21.28125 8.78125 20.765625 7.46875 C 20.585938 7.015625 20.113281 6.464844 19.566406 6.738281 C 18.933594 7.054688 18.757812 7.949219 18.707031 8.582031 C 18.664062 9.09375 18.695312 9.609375 18.78125 10.113281 C 18.867188 10.621094 19.007812 11.101562 19.164062 11.582031 C 19.304688 12.023438 19.464844 12.460938 19.636719 12.894531 C 19.527344 13.234375 19.410156 13.570312 19.289062 13.898438 C 19.003906 14.640625 18.699219 15.347656 18.402344 16.027344 C 18.246094 16.367188 18.09375 16.695312 17.945312 17.019531 C 17.472656 18.054688 16.960938 19.074219 16.386719 20.054688 C 15.046875 20.53125 13.84375 21.078125 12.84375 21.722656 C 12.308594 22.070312 11.832031 22.445312 11.441406 22.855469 C 11.066406 23.246094 10.6875 23.753906 10.65625 24.3125 C 10.636719 24.628906 10.761719 24.933594 11.019531 25.121094 C 11.375 25.386719 11.847656 25.371094 12.261719 25.28125 C 13.613281 25 14.652344 23.835938 15.535156 22.855469 C 16.144531 22.183594 16.839844 21.324219 17.5625 20.289062 C 17.566406 20.285156 17.566406 20.285156 17.570312 20.28125 C 18.8125 19.894531 20.167969 19.570312 21.601562 19.332031 C 22.257812 19.222656 22.933594 19.132812 23.621094 19.070312 C 24.105469 19.523438 24.625 19.9375 25.195312 20.28125 C 25.640625 20.554688 26.109375 20.785156 26.605469 20.957031 C 27.105469 21.117188 27.605469 21.25 28.125 21.335938 C 28.386719 21.375 28.65625 21.390625 28.929688 21.378906 C 29.539062 21.355469 30.417969 21.121094 30.476562 20.382812 C 30.492188 20.15625 30.445312 19.957031 30.347656 19.78125 Z M 15.71875 21.140625 C 15.433594 21.585938 15.15625 21.984375 14.898438 22.335938 C 14.261719 23.199219 13.53125 24.230469 12.480469 24.613281 C 12.28125 24.6875 12.015625 24.761719 11.738281 24.746094 C 11.492188 24.730469 11.246094 24.625 11.257812 24.34375 C 11.265625 24.195312 11.335938 24.007812 11.445312 23.824219 C 11.566406 23.621094 11.714844 23.4375 11.878906 23.265625 C 12.226562 22.902344 12.664062 22.546875 13.167969 22.222656 C 13.941406 21.71875 14.867188 21.269531 15.894531 20.863281 C 15.835938 20.957031 15.777344 21.050781 15.71875 21.140625 Z M 19.308594 10.023438 C 19.230469 9.5625 19.21875 9.089844 19.269531 8.640625 C 19.292969 8.414062 19.339844 8.191406 19.40625 7.984375 C 19.460938 7.808594 19.582031 7.382812 19.777344 7.328125 C 20.097656 7.234375 20.195312 7.925781 20.234375 8.121094 C 20.441406 9.226562 20.257812 10.457031 20.007812 11.546875 C 19.96875 11.71875 19.925781 11.886719 19.882812 12.058594 C 19.804688 11.847656 19.730469 11.632812 19.664062 11.421875 C 19.519531 10.957031 19.386719 10.484375 19.308594 10.023438 Z M 21.511719 18.769531 C 20.308594 18.964844 19.160156 19.21875 18.082031 19.523438 C 18.214844 19.484375 18.804688 18.363281 18.9375 18.128906 C 19.5625 17.03125 20.070312 15.882812 20.4375 14.671875 C 21.082031 15.953125 21.867188 17.175781 22.832031 18.265625 C 22.921875 18.363281 23.011719 18.460938 23.101562 18.558594 C 22.5625 18.613281 22.03125 18.6875 21.511719 18.769531 Z M 29.65625 20.3125 C 29.613281 20.550781 29.105469 20.6875 28.867188 20.722656 C 28.164062 20.835938 27.425781 20.746094 26.753906 20.519531 C 26.292969 20.367188 25.847656 20.15625 25.425781 19.902344 C 25.007812 19.648438 24.613281 19.351562 24.246094 19.019531 C 24.699219 18.996094 25.15625 18.976562 25.617188 18.984375 C 26.078125 18.988281 26.542969 19.011719 27 19.074219 C 27.859375 19.167969 28.820312 19.464844 29.496094 20.019531 C 29.628906 20.128906 29.671875 20.226562 29.65625 20.3125 Z M 29.65625 20.3125 "/> <path style=" stroke:none;fill-rule:nonzero;fill:rgb(98.431373%,20.392157%,28.627451%);fill-opacity:1;" d="M 30.03125 3.332031 L 4.332031 3.332031 L 4.332031 0 L 29 0 Z M 30.03125 3.332031 "/> <path style=" stroke:none;fill-rule:nonzero;fill:rgb(64.313725%,66.27451%,67.843137%);fill-opacity:1;" d="M 16.734375 31.816406 C 16.734375 32.523438 16.527344 33.070312 16.109375 33.453125 C 15.691406 33.839844 15.097656 34.03125 14.332031 34.03125 L 13.851562 34.03125 L 13.851562 36.132812 L 12.140625 36.132812 L 12.140625 29.800781 L 14.332031 29.800781 C 15.132812 29.800781 15.730469 29.976562 16.132812 30.324219 C 16.535156 30.675781 16.734375 31.171875 16.734375 31.816406 Z M 13.851562 32.636719 L 14.164062 32.636719 C 14.417969 32.636719 14.625 32.566406 14.773438 32.421875 C 14.925781 32.277344 15.003906 32.078125 15.003906 31.824219 C 15.003906 31.398438 14.765625 31.183594 14.292969 31.183594 L 13.851562 31.183594 C 13.851562 31.183594 13.851562 32.636719 13.851562 32.636719 Z M 13.851562 32.636719 "/> <path style=" stroke:none;fill-rule:nonzero;fill:rgb(64.313725%,66.27451%,67.843137%);fill-opacity:1;" d="M 23.117188 32.832031 C 23.117188 33.890625 22.824219 34.703125 22.242188 35.273438 C 21.664062 35.847656 20.84375 36.132812 19.792969 36.132812 L 17.742188 36.132812 L 17.742188 29.800781 L 19.933594 29.800781 C 20.949219 29.800781 21.734375 30.0625 22.289062 30.582031 C 22.839844 31.101562 23.117188 31.851562 23.117188 32.832031 Z M 21.339844 32.894531 C 21.339844 32.3125 21.226562 31.882812 20.996094 31.601562 C 20.765625 31.324219 20.417969 31.183594 19.953125 31.183594 L 19.453125 31.183594 L 19.453125 34.730469 L 19.835938 34.730469 C 20.355469 34.730469 20.734375 34.578125 20.976562 34.277344 C 21.21875 33.976562 21.339844 33.515625 21.339844 32.894531 Z M 21.339844 32.894531 "/> <path style=" stroke:none;fill-rule:nonzero;fill:rgb(64.313725%,66.27451%,67.843137%);fill-opacity:1;" d="M 25.933594 36.132812 L 24.25 36.132812 L 24.25 29.800781 L 27.992188 29.800781 L 27.992188 31.175781 L 25.933594 31.175781 L 25.933594 32.382812 L 27.832031 32.382812 L 27.832031 33.753906 L 25.933594 33.753906 Z M 25.933594 36.132812 "/> <path style=" stroke:none;fill-rule:nonzero;fill:rgb(81.960784%,82.745098%,82.745098%);fill-opacity:1;" d="M 29 6.664062 L 35.667969 6.664062 L 29 0 Z M 29 6.664062 "/> </g> </svg>